<svg version="1.1" xmlns="http://www.w3.org/2000/svg" viewBox="0 0 1134.1187438964844 370.40000610351564" width="2268.2374877929688" height="740.8000122070313" filter="invert(93%) hue-rotate(180deg)">
  <!-- svg-source:excalidraw -->
  
  <defs>
    <style class="style-fonts">
      @font-face {
        font-family: "Virgil";
        src: url("https://excalidraw.com/Virgil.woff2");
      }
      @font-face {
        font-family: "Cascadia";
        src: url("https://excalidraw.com/Cascadia.woff2");
      }
      @font-face {
        font-family: "Assistant";
        src: url("https://excalidraw.com/Assistant-Regular.woff2");
      }
    </style>
    
  </defs>
  <rect x="0" y="0" width="1134.1187438964844" height="370.40000610351564" fill="#ffffff"></rect><g transform="translate(10 146.79998779296875) rotate(0 401.953125 33.599999999999994)"><text x="0" y="0" font-family="Cascadia, Segoe UI Emoji" font-size="28px" fill="#1e1e1e" text-anchor="start" style="white-space: pre;" direction="ltr" dominant-baseline="text-before-edge">        Building khushiKiBuilding=new Building();</text><text x="0" y="33.6" font-family="Cascadia, Segoe UI Emoji" font-size="28px" fill="#1e1e1e" text-anchor="start" style="white-space: pre;" direction="ltr" dominant-baseline="text-before-edge"></text></g><g transform="translate(146 186) rotate(0 61.59999084472656 2.8000030517578125)" stroke="none"><path fill="#2f9e44" d="M 0.62,-3.90 Q 0.62,-3.90 6.34,-2.80 12.06,-1.71 17.11,-1.20 22.15,-0.70 29.56,-0.44 36.98,-0.18 44.05,-0.04 51.13,0.09 56.67,0.17 62.21,0.25 66.41,0.29 70.60,0.32 73.07,0.10 75.55,-0.12 78.94,-0.50 82.34,-0.87 86.73,-1.09 91.11,-1.31 93.67,-1.39 96.22,-1.47 99.54,-1.67 102.86,-1.88 106.54,-1.47 110.22,-1.06 113.74,-1.13 117.26,-1.19 120.68,-0.94 124.10,-0.68 125.08,-0.37 126.06,-0.06 126.89,0.53 127.72,1.14 128.32,1.98 128.91,2.82 129.20,3.80 129.50,4.79 129.46,5.81 129.43,6.84 129.06,7.80 128.70,8.77 128.05,9.56 127.40,10.36 126.53,10.91 125.66,11.45 124.66,11.69 123.66,11.93 122.64,11.84 121.61,11.75 120.67,11.33 119.73,10.92 118.97,10.23 118.21,9.54 117.71,8.64 117.21,7.74 117.03,6.73 116.84,5.72 116.99,4.70 117.14,3.68 117.60,2.76 118.06,1.85 118.80,1.13 119.53,0.40 120.45,-0.03 121.38,-0.48 122.40,-0.61 123.42,-0.74 124.43,-0.54 125.43,-0.34 126.33,0.16 127.22,0.68 127.90,1.45 128.58,2.22 128.97,3.16 129.37,4.11 129.45,5.14 129.52,6.16 129.27,7.16 129.01,8.15 128.45,9.02 127.89,9.88 127.08,10.51 126.28,11.15 125.31,11.50 124.34,11.84 123.31,11.86 122.29,11.88 122.29,11.88 122.29,11.88 120.81,11.46 119.33,11.03 116.54,10.48 113.75,9.93 111.09,9.74 108.42,9.55 105.64,8.92 102.86,8.28 99.54,8.07 96.22,7.87 93.67,7.79 91.11,7.71 86.73,7.49 82.34,7.27 78.93,6.89 75.53,6.50 73.06,6.26 70.58,6.03 66.38,6.04 62.18,6.05 56.63,6.07 51.07,6.09 43.95,6.09 36.84,6.09 29.24,6.02 21.65,5.94 16.29,5.67 10.93,5.39 5.15,4.64 -0.62,3.90 -1.08,3.77 -1.54,3.64 -1.95,3.40 -2.36,3.16 -2.71,2.83 -3.05,2.50 -3.31,2.10 -3.56,1.70 -3.72,1.25 -3.87,0.80 -3.91,0.32 -3.95,-0.14 -3.87,-0.62 -3.80,-1.09 -3.61,-1.53 -3.42,-1.96 -3.14,-2.35 -2.85,-2.73 -2.49,-3.03 -2.12,-3.33 -1.69,-3.54 -1.26,-3.74 -0.79,-3.84 -0.32,-3.94 0.14,-3.92 0.62,-3.90 0.62,-3.90 L 0.62,-3.90 Z"></path></g><g transform="translate(206.00003051757812 192.39999389648438) rotate(0 -4 16.399993896484375)" stroke="none"><path fill="#2f9e44" d="M 4.84,0.90 Q 4.84,0.90 3.99,4.55 3.14,8.20 2.30,11.66 1.46,15.13 0.69,18.08 -0.08,21.03 -1.15,23.57 -2.23,26.11 -2.50,29.58 -2.77,33.05 -2.95,33.87 -3.12,34.70 -3.56,35.43 -3.99,36.16 -4.63,36.71 -5.27,37.26 -6.06,37.58 -6.84,37.90 -7.68,37.95 -8.53,38.00 -9.35,37.78 -10.16,37.55 -10.87,37.08 -11.57,36.61 -12.08,35.94 -12.60,35.27 -12.88,34.47 -13.15,33.67 -13.16,32.83 -13.16,31.98 -12.90,31.18 -12.63,30.37 -12.12,29.70 -11.61,29.02 -10.92,28.54 -10.22,28.06 -9.41,27.83 -8.59,27.60 -7.75,27.64 -6.90,27.68 -6.11,27.99 -5.33,28.30 -4.68,28.84 -4.03,29.39 -3.59,30.11 -3.15,30.83 -2.96,31.66 -2.77,32.48 -2.86,33.32 -2.95,34.16 -3.30,34.93 -3.65,35.70 -4.23,36.32 -4.81,36.94 -5.55,37.34 -6.30,37.74 -7.13,37.88 -7.96,38.02 -8.80,37.89 -9.64,37.76 -10.39,37.37 -11.14,36.98 -11.72,36.37 -12.31,35.76 -12.67,34.99 -13.03,34.22 -13.12,33.38 -13.22,32.54 -13.22,32.54 -13.22,32.54 -12.59,28.55 -11.97,24.57 -10.39,21.58 -8.81,18.60 -8.02,15.90 -7.23,13.20 -6.57,9.85 -5.90,6.51 -5.37,2.80 -4.84,-0.90 -4.66,-1.47 -4.48,-2.04 -4.17,-2.54 -3.86,-3.05 -3.44,-3.47 -3.02,-3.89 -2.51,-4.19 -2.00,-4.50 -1.43,-4.67 -0.86,-4.85 -0.27,-4.88 0.31,-4.91 0.90,-4.81 1.48,-4.70 2.02,-4.45 2.56,-4.20 3.03,-3.83 3.50,-3.47 3.86,-3.00 4.22,-2.53 4.47,-1.98 4.71,-1.44 4.81,-0.86 4.92,-0.27 4.88,0.31 4.84,0.90 4.84,0.90 L 4.84,0.90 Z"></path></g><g transform="translate(173.19998168945312 218) rotate(0 32.4000244140625 6.399993896484375)" stroke="none"><path fill="#2f9e44" d="M 2.66,-4.00 Q 2.66,-4.00 6.65,-1.00 10.63,1.98 13.72,4.15 16.80,6.32 19.15,7.85 21.50,9.38 23.98,11.28 26.47,13.19 26.35,10.65 26.24,8.12 28.66,6.10 31.07,4.08 36.09,1.47 41.12,-1.13 45.66,-3.03 50.20,-4.92 53.20,-6.29 56.21,-7.65 59.90,-8.98 63.60,-10.31 64.38,-10.38 65.17,-10.45 65.93,-10.26 66.70,-10.08 67.36,-9.66 68.03,-9.23 68.53,-8.62 69.02,-8.01 69.30,-7.27 69.57,-6.53 69.60,-5.75 69.62,-4.96 69.39,-4.21 69.17,-3.45 68.71,-2.81 68.25,-2.17 67.62,-1.71 66.98,-1.24 66.23,-1.01 65.47,-0.77 64.69,-0.79 63.90,-0.81 63.16,-1.08 62.42,-1.35 61.80,-1.84 61.19,-2.33 60.76,-2.99 60.33,-3.65 60.14,-4.41 59.94,-5.18 60.00,-5.96 60.07,-6.75 60.37,-7.47 60.68,-8.20 61.20,-8.79 61.73,-9.38 62.41,-9.77 63.10,-10.16 63.87,-10.31 64.64,-10.46 65.42,-10.36 66.20,-10.26 66.91,-9.91 67.62,-9.56 68.18,-9.01 68.74,-8.45 69.09,-7.75 69.44,-7.04 69.55,-6.26 69.66,-5.48 69.52,-4.71 69.37,-3.94 68.99,-3.25 68.60,-2.56 68.02,-2.03 67.44,-1.50 66.71,-1.19 65.99,-0.88 65.99,-0.88 65.99,-0.88 62.94,-0.22 59.90,0.42 57.02,1.75 54.15,3.07 50.28,5.32 46.40,7.58 40.81,10.95 35.21,14.33 35.04,16.49 34.86,18.65 32.54,20.88 30.21,23.11 28.00,23.19 25.78,23.27 23.53,22.22 21.28,21.17 18.95,18.76 16.62,16.34 14.46,14.71 12.30,13.08 9.11,11.06 5.92,9.05 1.62,6.52 -2.66,4.00 -3.11,3.62 -3.55,3.24 -3.88,2.77 -4.22,2.30 -4.43,1.76 -4.65,1.22 -4.73,0.65 -4.81,0.07 -4.75,-0.49 -4.69,-1.07 -4.49,-1.62 -4.29,-2.16 -3.97,-2.65 -3.65,-3.13 -3.22,-3.52 -2.79,-3.91 -2.28,-4.19 -1.77,-4.47 -1.21,-4.62 -0.65,-4.76 -0.07,-4.77 0.50,-4.78 1.06,-4.65 1.63,-4.52 2.15,-4.26 2.67,-4.00 2.67,-4.00 L 2.66,-4.00 Z"></path></g><g transform="translate(142.79998779296875 259.6000061035156) rotate(0 90.234375 50.400000000000006)"><text x="0" y="0" font-family="Cascadia, Segoe UI Emoji" font-size="28px" fill="#2f9e44" text-anchor="start" style="white-space: pre;" direction="ltr" dominant-baseline="text-before-edge">Class Name</text><text x="0" y="33.6" font-family="Cascadia, Segoe UI Emoji" font-size="28px" fill="#2f9e44" text-anchor="start" style="white-space: pre;" direction="ltr" dominant-baseline="text-before-edge">(blueprint </text><text x="0" y="67.2" font-family="Cascadia, Segoe UI Emoji" font-size="28px" fill="#2f9e44" text-anchor="start" style="white-space: pre;" direction="ltr" dominant-baseline="text-before-edge">  name)</text></g><g transform="translate(306.8000183105469 190.79998779296875) rotate(0 118.79998779296875 5.1999969482421875)" stroke="none"><path fill="#2f9e44" d="M 0.23,-3.11 Q 0.23,-3.11 6.43,-2.58 12.64,-2.06 18.60,-1.11 24.57,-0.16 30.04,0.70 35.52,1.57 42.93,2.88 50.34,4.18 55.91,4.73 61.47,5.28 65.67,5.52 69.86,5.76 74.84,5.87 79.82,5.97 85.62,6.02 91.42,6.07 98.07,6.32 104.72,6.58 109.19,6.92 113.66,7.26 116.00,7.15 118.33,7.03 120.88,6.90 123.43,6.76 126.12,6.63 128.82,6.51 132.95,6.65 137.08,6.80 142.29,6.93 147.49,7.07 151.78,7.16 156.06,7.26 158.57,7.06 161.08,6.85 163.30,6.67 165.52,6.49 168.07,6.35 170.62,6.22 173.32,6.13 176.01,6.04 178.54,5.94 181.06,5.85 184.21,5.85 187.35,5.86 190.06,5.80 192.78,5.74 196.43,5.53 200.07,5.33 202.34,5.07 204.61,4.82 206.72,4.29 208.83,3.76 214.18,3.13 219.54,2.50 222.26,2.04 224.98,1.57 227.62,1.11 230.25,0.65 232.48,0.11 234.71,-0.42 233.78,0.00 232.85,0.42 233.42,-0.26 233.99,-0.94 234.74,-1.41 235.50,-1.88 236.37,-2.08 237.23,-2.28 238.12,-2.20 239.00,-2.11 239.81,-1.75 240.63,-1.38 241.28,-0.78 241.93,-0.17 242.36,0.60 242.78,1.38 242.94,2.25 243.09,3.13 242.96,4.01 242.83,4.89 242.42,5.68 242.01,6.47 241.37,7.09 240.73,7.71 239.93,8.09 239.13,8.47 238.25,8.58 237.36,8.69 236.49,8.51 235.62,8.33 234.85,7.88 234.09,7.43 233.50,6.76 232.92,6.08 232.58,5.26 232.24,4.44 232.18,3.55 232.12,2.67 232.35,1.81 232.58,0.95 233.07,0.20 233.56,-0.53 234.26,-1.08 234.96,-1.62 235.80,-1.92 236.64,-2.21 237.53,-2.22 238.42,-2.23 239.27,-1.96 240.11,-1.68 240.83,-1.15 241.54,-0.62 242.05,0.10 242.56,0.83 242.81,1.68 243.05,2.54 243.02,3.43 242.98,4.31 242.66,5.14 242.34,5.97 242.34,5.97 242.34,5.97 239.11,8.16 235.88,10.34 233.47,10.55 231.06,10.75 228.70,10.77 226.34,10.78 223.74,11.11 221.14,11.43 216.14,12.66 211.13,13.88 208.35,14.46 205.56,15.05 202.82,15.26 200.07,15.46 196.43,15.26 192.78,15.05 190.06,14.99 187.35,14.93 184.21,14.94 181.06,14.94 178.54,14.85 176.01,14.75 173.32,14.66 170.62,14.57 168.07,14.44 165.52,14.30 163.30,14.12 161.08,13.94 158.57,13.73 156.06,13.52 151.77,13.62 147.49,13.71 142.27,13.83 137.06,13.96 132.90,14.08 128.74,14.21 126.00,14.03 123.26,13.85 120.60,13.59 117.95,13.33 115.60,12.94 113.26,12.54 108.89,12.21 104.52,11.88 97.95,11.64 91.38,11.40 85.55,11.36 79.71,11.33 74.64,11.24 69.57,11.15 65.26,10.93 60.95,10.71 55.18,10.17 49.40,9.63 42.04,8.39 34.67,7.14 29.19,6.34 23.70,5.54 17.95,4.72 12.19,3.90 5.98,3.50 -0.23,3.11 -0.60,3.04 -0.96,2.97 -1.31,2.81 -1.65,2.65 -1.94,2.41 -2.23,2.17 -2.46,1.87 -2.69,1.57 -2.84,1.23 -2.99,0.88 -3.05,0.51 -3.12,0.14 -3.09,-0.22 -3.06,-0.60 -2.94,-0.96 -2.83,-1.32 -2.63,-1.64 -2.43,-1.96 -2.16,-2.22 -1.89,-2.48 -1.56,-2.67 -1.24,-2.86 -0.88,-2.97 -0.52,-3.08 -0.14,-3.09 0.23,-3.11 0.23,-3.11 L 0.23,-3.11 Z"></path></g><g transform="translate(429.1999816894531 204.39999389648438) rotate(0 9.20001220703125 19.600006103515625)" stroke="none"><path fill="#2f9e44" d="M 4.57,-2.28 Q 4.57,-2.28 6.04,0.99 7.52,4.28 8.84,6.39 10.15,8.50 11.47,10.59 12.79,12.69 13.90,14.54 15.01,16.40 16.55,18.48 18.09,20.57 19.03,23.63 19.98,26.70 20.21,29.09 20.44,31.48 20.84,32.45 21.24,33.41 22.09,34.02 22.94,34.62 23.55,35.47 24.16,36.31 24.47,37.31 24.78,38.31 24.75,39.35 24.73,40.39 24.37,41.37 24.01,42.35 23.36,43.16 22.71,43.98 21.84,44.54 20.96,45.11 19.95,45.36 18.94,45.62 17.90,45.53 16.86,45.45 15.90,45.04 14.94,44.63 14.16,43.94 13.38,43.25 12.87,42.34 12.35,41.43 12.15,40.41 11.95,39.39 12.09,38.35 12.23,37.32 12.69,36.39 13.15,35.45 13.89,34.71 14.62,33.97 15.55,33.51 16.49,33.04 17.52,32.90 18.55,32.75 19.58,32.95 20.60,33.14 21.51,33.65 22.42,34.16 23.12,34.94 23.82,35.71 24.23,36.67 24.64,37.62 24.73,38.66 24.82,39.70 24.57,40.71 24.32,41.73 23.76,42.61 23.20,43.49 22.39,44.14 21.58,44.80 20.60,45.16 19.63,45.52 18.58,45.55 17.54,45.58 16.54,45.28 15.55,44.98 15.55,44.98 15.55,44.98 13.64,42.85 11.74,40.72 10.47,38.00 9.19,35.29 8.79,32.45 8.39,29.61 8.32,26.98 8.24,24.36 6.24,21.09 4.23,17.83 3.00,15.68 1.77,13.53 0.34,11.06 -1.08,8.59 -2.82,5.44 -4.57,2.28 -4.78,1.70 -4.98,1.12 -5.05,0.51 -5.11,-0.10 -5.02,-0.71 -4.94,-1.32 -4.71,-1.89 -4.48,-2.46 -4.12,-2.96 -3.76,-3.46 -3.29,-3.86 -2.82,-4.26 -2.27,-4.54 -1.71,-4.81 -1.11,-4.95 -0.51,-5.08 0.10,-5.07 0.71,-5.06 1.31,-4.90 1.90,-4.74 2.44,-4.44 2.98,-4.15 3.44,-3.73 3.89,-3.31 4.23,-2.80 4.57,-2.28 4.57,-2.28 L 4.57,-2.28 Z"></path></g><g transform="translate(429.1999816894531 234) rotate(0 27.600006103515625 5.9999847412109375)" stroke="none"><path fill="#2f9e44" d="M 3.60,-3.60 Q 3.60,-3.60 5.84,-1.24 8.09,1.10 10.65,3.41 13.21,5.72 14.27,7.82 15.34,9.92 17.54,10.22 19.74,10.52 17.26,9.58 14.79,8.64 18.60,5.73 22.42,2.83 25.43,1.54 28.45,0.24 30.94,-0.53 33.42,-1.32 36.50,-2.23 39.57,-3.15 41.70,-3.37 43.82,-3.58 45.38,-5.25 46.94,-6.91 50.26,-8.20 53.59,-9.48 54.63,-9.57 55.68,-9.67 56.70,-9.42 57.72,-9.17 58.61,-8.61 59.50,-8.05 60.16,-7.24 60.82,-6.43 61.19,-5.44 61.56,-4.46 61.60,-3.41 61.63,-2.36 61.33,-1.36 61.03,-0.35 60.42,0.50 59.81,1.35 58.97,1.97 58.12,2.59 57.11,2.90 56.11,3.22 55.06,3.20 54.01,3.18 53.03,2.82 52.04,2.47 51.22,1.81 50.39,1.16 49.82,0.28 49.25,-0.59 48.99,-1.61 48.73,-2.63 48.81,-3.67 48.89,-4.72 49.30,-5.69 49.70,-6.65 50.40,-7.44 51.10,-8.23 52.01,-8.75 52.92,-9.27 53.95,-9.48 54.98,-9.68 56.02,-9.55 57.06,-9.41 58.00,-8.95 58.95,-8.49 59.69,-7.75 60.44,-7.01 60.91,-6.08 61.39,-5.14 61.54,-4.10 61.68,-3.06 61.49,-2.03 61.30,-1.00 60.79,-0.08 60.28,0.83 59.50,1.53 58.72,2.24 57.76,2.66 56.80,3.08 56.80,3.08 56.80,3.08 54.87,3.69 52.95,4.30 51.18,5.53 49.42,6.75 45.62,7.68 41.82,8.60 39.33,9.17 36.85,9.74 32.99,11.15 29.14,12.56 27.31,13.87 25.49,15.18 22.75,17.39 20.01,19.60 17.09,19.65 14.17,19.70 11.83,19.00 9.49,18.29 7.55,15.70 5.62,13.11 3.36,10.60 1.10,8.09 -1.24,5.84 -3.60,3.60 -3.98,3.11 -4.36,2.63 -4.61,2.07 -4.86,1.51 -4.97,0.91 -5.08,0.30 -5.04,-0.30 -5.01,-0.91 -4.82,-1.50 -4.64,-2.09 -4.32,-2.61 -4.01,-3.14 -3.57,-3.57 -3.14,-4.01 -2.61,-4.32 -2.09,-4.64 -1.50,-4.83 -0.91,-5.01 -0.30,-5.04 0.30,-5.08 0.91,-4.97 1.51,-4.86 2.07,-4.61 2.63,-4.36 3.12,-3.98 3.60,-3.60 3.60,-3.60 L 3.60,-3.60 Z"></path></g><g transform="translate(398.0000305175781 281.1999816894531) rotate(0 147.65625 33.599999999999994)"><text x="0" y="0" font-family="Cascadia, Segoe UI Emoji" font-size="28px" fill="#2f9e44" text-anchor="start" style="white-space: pre;" direction="ltr" dominant-baseline="text-before-edge">reference variable</text><text x="0" y="33.6" font-family="Cascadia, Segoe UI Emoji" font-size="28px" fill="#2f9e44" text-anchor="start" style="white-space: pre;" direction="ltr" dominant-baseline="text-before-edge">(object)</text></g><g transform="translate(570.0000305175781 144.39999389648438) rotate(0 24 0.399993896484375)" stroke="none"><path fill="#2f9e44" d="M 0,-5.22 Q 0,-5.22 3.21,-5.13 6.43,-5.05 9.18,-5.06 11.93,-5.06 15.50,-5.22 19.07,-5.39 21.81,-5.51 24.55,-5.64 26.98,-5.77 29.41,-5.89 32.47,-5.97 35.53,-6.06 37.97,-6.18 40.41,-6.30 43.86,-5.19 47.32,-4.07 47.68,-4.92 48.05,-5.78 49.10,-5.60 50.15,-5.42 51.08,-4.91 52.02,-4.41 52.75,-3.63 53.47,-2.85 53.91,-1.88 54.35,-0.91 54.46,0.14 54.57,1.20 54.33,2.24 54.09,3.28 53.54,4.19 52.98,5.10 52.16,5.78 51.35,6.46 50.35,6.85 49.36,7.24 48.30,7.29 47.23,7.33 46.21,7.04 45.18,6.75 44.31,6.14 43.43,5.54 42.79,4.69 42.15,3.83 41.82,2.82 41.49,1.81 41.50,0.74 41.51,-0.31 41.85,-1.32 42.20,-2.32 42.85,-3.17 43.51,-4.01 44.39,-4.60 45.28,-5.19 46.31,-5.47 47.33,-5.75 48.40,-5.68 49.46,-5.61 50.45,-5.21 51.43,-4.81 52.24,-4.11 53.05,-3.42 53.59,-2.50 54.13,-1.58 54.35,-0.54 54.57,0.49 54.45,1.55 54.32,2.61 53.87,3.57 53.41,4.53 52.68,5.30 51.94,6.07 50.99,6.56 50.05,7.05 48.99,7.21 47.94,7.38 47.94,7.38 47.94,7.38 44.18,6.84 40.41,6.30 37.97,6.18 35.53,6.06 32.47,5.97 29.41,5.89 26.98,5.77 24.55,5.64 21.81,5.51 19.07,5.39 15.50,5.22 11.93,5.06 9.18,5.06 6.43,5.05 3.21,5.13 0,5.22 -0.62,5.14 -1.24,5.07 -1.83,4.84 -2.42,4.62 -2.94,4.26 -3.46,3.90 -3.88,3.43 -4.29,2.96 -4.59,2.40 -4.88,1.85 -5.03,1.24 -5.18,0.62 -5.18,-0.00 -5.18,-0.62 -5.03,-1.24 -4.88,-1.85 -4.59,-2.40 -4.29,-2.96 -3.88,-3.43 -3.46,-3.90 -2.94,-4.26 -2.42,-4.62 -1.83,-4.84 -1.24,-5.07 -0.62,-5.14 0.00,-5.22 0.00,-5.22 L 0,-5.22 Z"></path></g><g transform="translate(586.0000305175781 137.19998168945312) rotate(0 0.399993896484375 -25.199996948242188)" stroke="none"><path fill="#2f9e44" d="M -5.12,0 Q -5.12,0 -5.04,-3.21 -4.97,-6.43 -5.01,-8.95 -5.05,-11.47 -5.27,-14.12 -5.49,-16.76 -5.66,-19.10 -5.83,-21.43 -5.97,-24.62 -6.12,-27.80 -5.86,-30.26 -5.61,-32.71 -5.53,-35.87 -5.45,-39.03 -5.50,-41.21 -5.55,-43.39 -5.64,-46.89 -5.72,-50.40 -5.55,-51.44 -5.38,-52.48 -4.88,-53.41 -4.39,-54.35 -3.62,-55.07 -2.86,-55.80 -1.90,-56.24 -0.94,-56.68 0.10,-56.80 1.15,-56.91 2.18,-56.68 3.21,-56.46 4.12,-55.91 5.02,-55.37 5.71,-54.56 6.39,-53.76 6.78,-52.78 7.17,-51.79 7.23,-50.74 7.28,-49.69 7.00,-48.67 6.72,-47.65 6.12,-46.78 5.53,-45.90 4.69,-45.27 3.85,-44.63 2.85,-44.29 1.85,-43.95 0.79,-43.95 -0.25,-43.95 -1.26,-44.29 -2.26,-44.63 -3.10,-45.27 -3.94,-45.91 -4.53,-46.78 -5.12,-47.66 -5.40,-48.68 -5.68,-49.69 -5.63,-50.75 -5.57,-51.80 -5.18,-52.78 -4.79,-53.76 -4.10,-54.57 -3.42,-55.37 -2.51,-55.92 -1.61,-56.46 -0.58,-56.69 0.45,-56.91 1.50,-56.80 2.55,-56.68 3.50,-56.24 4.46,-55.79 5.23,-55.07 5.99,-54.34 6.49,-53.41 6.98,-52.47 7.15,-51.43 7.32,-50.39 7.32,-50.39 7.32,-50.39 7.30,-48.57 7.28,-46.75 7.16,-44.01 7.04,-41.28 6.92,-38.07 6.81,-34.86 6.46,-31.33 6.12,-27.80 5.97,-24.62 5.83,-21.43 5.66,-19.10 5.49,-16.76 5.27,-14.12 5.05,-11.47 5.01,-8.95 4.97,-6.43 5.04,-3.21 5.12,0 5.04,0.61 4.97,1.22 4.75,1.80 4.53,2.38 4.18,2.88 3.83,3.39 3.37,3.80 2.91,4.21 2.36,4.50 1.81,4.79 1.21,4.93 0.61,5.08 -0.00,5.08 -0.61,5.08 -1.21,4.93 -1.81,4.79 -2.36,4.50 -2.91,4.21 -3.37,3.80 -3.83,3.39 -4.18,2.88 -4.53,2.38 -4.75,1.80 -4.97,1.22 -5.04,0.61 -5.12,-0.00 -5.12,-0.00 L -5.12,0 Z"></path></g><g transform="translate(586.8000183105469 79.60002136230469) rotate(0 -11.600006103515625 5.199981689453125)" stroke="none"><path fill="#2f9e44" d="M 1.31,4.71 Q 1.31,4.71 -2.90,5.58 -7.12,6.45 -9.33,7.41 -11.55,8.37 -13.33,9.78 -15.11,11.19 -17.66,12.95 -20.21,14.71 -20.98,15.07 -21.75,15.44 -22.59,15.54 -23.43,15.63 -24.26,15.46 -25.09,15.29 -25.82,14.85 -26.55,14.42 -27.11,13.78 -27.66,13.14 -27.99,12.35 -28.31,11.57 -28.36,10.72 -28.41,9.88 -28.19,9.06 -27.98,8.24 -27.51,7.53 -27.04,6.82 -26.36,6.30 -25.69,5.78 -24.89,5.50 -24.09,5.23 -23.24,5.22 -22.39,5.21 -21.59,5.47 -20.78,5.74 -20.10,6.25 -19.42,6.75 -18.94,7.45 -18.45,8.15 -18.22,8.97 -17.99,9.78 -18.02,10.63 -18.06,11.48 -18.37,12.27 -18.68,13.06 -19.22,13.71 -19.76,14.36 -20.49,14.81 -21.21,15.25 -22.04,15.44 -22.86,15.63 -23.71,15.55 -24.55,15.46 -25.33,15.11 -26.10,14.76 -26.72,14.18 -27.34,13.61 -27.75,12.86 -28.15,12.11 -28.30,11.28 -28.44,10.44 -28.31,9.60 -28.18,8.76 -27.79,8.01 -27.40,7.26 -26.79,6.67 -26.18,6.08 -26.18,6.08 -26.18,6.08 -23.45,4.56 -20.71,3.04 -17.76,1.53 -14.80,0.01 -12.12,-0.91 -9.43,-1.85 -5.37,-3.28 -1.31,-4.71 -0.72,-4.80 -0.14,-4.89 0.44,-4.84 1.03,-4.78 1.59,-4.59 2.14,-4.40 2.64,-4.07 3.13,-3.75 3.54,-3.32 3.94,-2.89 4.23,-2.38 4.52,-1.86 4.68,-1.30 4.84,-0.73 4.85,-0.14 4.87,0.44 4.75,1.02 4.62,1.60 4.36,2.13 4.10,2.66 3.73,3.11 3.35,3.56 2.87,3.91 2.40,4.26 1.85,4.49 1.31,4.71 1.31,4.71 L 1.31,4.71 Z"></path></g><g transform="translate(588.3999938964844 81.19999694824219) rotate(0 11.20001220703125 10.399993896484375)" stroke="none"><path fill="#2f9e44" d="M 3.09,-4.25 Q 3.09,-4.25 5.58,-2.35 8.07,-0.45 10.00,1.07 11.93,2.61 14.04,3.95 16.15,5.29 18.34,7.20 20.52,9.11 22.35,10.71 24.19,12.30 26.14,15.36 28.09,18.43 28.32,19.40 28.55,20.37 28.46,21.36 28.36,22.36 27.96,23.27 27.55,24.18 26.88,24.91 26.20,25.65 25.33,26.13 24.45,26.61 23.47,26.79 22.49,26.96 21.50,26.82 20.51,26.67 19.62,26.22 18.74,25.76 18.04,25.05 17.34,24.33 16.91,23.43 16.48,22.53 16.35,21.54 16.23,20.55 16.43,19.58 16.63,18.60 17.13,17.73 17.63,16.87 18.39,16.21 19.14,15.56 20.06,15.17 20.98,14.79 21.98,14.72 22.97,14.65 23.94,14.91 24.90,15.16 25.74,15.71 26.57,16.25 27.19,17.04 27.80,17.83 28.13,18.77 28.47,19.71 28.48,20.70 28.50,21.70 28.19,22.65 27.89,23.60 27.29,24.41 26.70,25.21 25.89,25.78 25.07,26.35 24.11,26.64 23.15,26.92 22.16,26.88 21.16,26.84 20.23,26.48 19.29,26.13 18.52,25.49 17.75,24.86 17.23,24.01 16.70,23.16 16.70,23.16 16.70,23.16 15.62,21.15 14.54,19.13 12.41,16.90 10.28,14.67 7.76,12.65 5.24,10.63 3.64,9.22 2.04,7.81 -0.52,6.03 -3.09,4.25 -3.55,3.82 -4.02,3.39 -4.37,2.86 -4.71,2.32 -4.92,1.73 -5.13,1.13 -5.19,0.50 -5.26,-0.12 -5.16,-0.75 -5.07,-1.38 -4.83,-1.97 -4.59,-2.55 -4.22,-3.07 -3.85,-3.58 -3.36,-3.99 -2.88,-4.40 -2.31,-4.68 -1.74,-4.96 -1.12,-5.10 -0.50,-5.23 0.12,-5.22 0.76,-5.20 1.37,-5.03 1.98,-4.87 2.54,-4.56 3.09,-4.25 3.09,-4.25 L 3.09,-4.25 Z"></path></g><g transform="translate(524.3999938964844 10) rotate(0 196.875 33.599999999999994)"><text x="0" y="0" font-family="Cascadia, Segoe UI Emoji" font-size="28px" fill="#2f9e44" text-anchor="start" style="white-space: pre;" direction="ltr" dominant-baseline="text-before-edge">dynamic(runtime) memory </text><text x="0" y="33.6" font-family="Cascadia, Segoe UI Emoji" font-size="28px" fill="#2f9e44" text-anchor="start" style="white-space: pre;" direction="ltr" dominant-baseline="text-before-edge">allocation(provide)</text></g><g transform="translate(641.1999816894531 194) rotate(0 80.39999389648438 0)" stroke="none"><path fill="#2f9e44" d="M 0,-4.32 Q 0,-4.32 5.29,-4.09 10.58,-3.87 15.58,-3.70 20.59,-3.53 26.63,-3.41 32.67,-3.29 37.07,-3.20 41.48,-3.11 44.27,-3.29 47.07,-3.48 49.40,-3.66 51.74,-3.84 54.34,-3.98 56.95,-4.11 59.66,-4.21 62.38,-4.30 67.21,-4.42 72.04,-4.54 76.02,-4.75 80.01,-4.96 82.99,-5.14 85.97,-5.33 89.59,-5.46 93.21,-5.58 96.02,-5.71 98.84,-5.83 101.24,-5.82 103.64,-5.80 105.81,-5.81 107.99,-5.82 111.43,-5.89 114.88,-5.97 117.44,-6.06 119.99,-6.15 122.55,-6.22 125.11,-6.29 127.97,-6.39 130.83,-6.49 133.90,-6.49 136.97,-6.49 139.85,-6.57 142.73,-6.65 145.06,-6.68 147.38,-6.71 150.16,-6.77 152.94,-6.83 155.23,-6.88 157.53,-6.93 159.16,-6.95 160.79,-6.96 161.91,-6.78 163.02,-6.60 164.02,-6.07 165.01,-5.54 165.79,-4.72 166.56,-3.91 167.04,-2.88 167.51,-1.86 167.63,-0.74 167.75,0.37 167.51,1.47 167.27,2.57 166.69,3.54 166.11,4.51 165.25,5.24 164.39,5.97 163.34,6.38 162.29,6.80 161.17,6.86 160.04,6.92 158.95,6.62 157.87,6.32 156.93,5.69 156.00,5.05 155.32,4.16 154.64,3.26 154.28,2.19 153.92,1.12 153.92,-0.00 153.92,-1.12 154.28,-2.19 154.64,-3.26 155.32,-4.16 156.00,-5.06 156.94,-5.69 157.87,-6.32 158.96,-6.62 160.04,-6.92 161.17,-6.86 162.29,-6.80 163.34,-6.38 164.39,-5.97 165.25,-5.24 166.11,-4.51 166.69,-3.54 167.27,-2.57 167.51,-1.47 167.75,-0.37 167.63,0.74 167.51,1.86 167.04,2.88 166.56,3.91 165.79,4.73 165.01,5.54 164.01,6.07 163.02,6.60 161.91,6.78 160.79,6.96 160.79,6.96 160.79,6.96 159.16,6.95 157.53,6.93 155.23,6.88 152.94,6.83 150.16,6.77 147.38,6.71 145.06,6.68 142.73,6.65 139.85,6.57 136.97,6.49 133.90,6.49 130.83,6.49 127.97,6.39 125.11,6.29 122.55,6.22 119.99,6.15 117.44,6.06 114.88,5.97 111.43,5.89 107.99,5.82 105.81,5.81 103.64,5.80 101.24,5.82 98.84,5.83 96.02,5.71 93.21,5.58 89.59,5.46 85.97,5.33 82.99,5.14 80.01,4.96 76.02,4.75 72.04,4.54 67.21,4.42 62.38,4.30 59.66,4.21 56.95,4.11 54.34,3.98 51.74,3.84 49.40,3.66 47.07,3.48 44.27,3.29 41.48,3.11 37.07,3.20 32.67,3.29 26.63,3.41 20.59,3.53 15.58,3.70 10.58,3.87 5.29,4.09 0,4.32 -0.51,4.25 -1.03,4.19 -1.52,4.01 -2.00,3.82 -2.43,3.52 -2.86,3.23 -3.21,2.84 -3.55,2.45 -3.79,1.99 -4.03,1.53 -4.16,1.02 -4.28,0.52 -4.28,-0.00 -4.28,-0.52 -4.16,-1.02 -4.03,-1.53 -3.79,-1.99 -3.55,-2.45 -3.20,-2.84 -2.86,-3.23 -2.43,-3.52 -2.00,-3.82 -1.52,-4.01 -1.03,-4.19 -0.51,-4.25 0.00,-4.32 0.00,-4.32 L 0,-4.32 Z"></path></g><g transform="translate(749.2000427246094 199.60000610351562) rotate(0 36.39996337890625 24)" stroke="none"><path fill="#2f9e44" d="M 2.37,-3.77 Q 2.37,-3.77 8.46,0.33 14.54,4.45 18.72,7.43 22.91,10.42 25.93,12.56 28.94,14.71 31.36,16.16 33.78,17.60 35.72,18.94 37.66,20.28 42.09,21.73 46.52,23.19 49.51,24.59 52.50,26.00 54.87,26.89 57.25,27.78 59.23,28.66 61.21,29.53 64.21,31.47 67.21,33.41 69.55,35.07 71.90,36.74 73.13,38.97 74.36,41.20 74.89,41.79 75.42,42.37 76.25,42.94 77.08,43.50 77.69,44.31 78.29,45.11 78.61,46.06 78.93,47.01 78.92,48.02 78.92,49.02 78.59,49.97 78.27,50.93 77.66,51.72 77.05,52.52 76.21,53.08 75.38,53.64 74.41,53.91 73.44,54.17 72.44,54.11 71.44,54.05 70.50,53.68 69.57,53.30 68.81,52.65 68.05,52.00 67.53,51.13 67.02,50.27 66.81,49.29 66.59,48.31 66.71,47.31 66.82,46.31 67.24,45.40 67.67,44.49 68.36,43.76 69.06,43.04 69.95,42.57 70.84,42.10 71.83,41.94 72.82,41.79 73.81,41.95 74.80,42.12 75.69,42.59 76.57,43.07 77.26,43.80 77.95,44.53 78.37,45.45 78.78,46.36 78.89,47.36 78.99,48.36 78.77,49.34 78.55,50.32 78.03,51.18 77.51,52.03 76.74,52.68 75.97,53.33 75.04,53.70 74.10,54.06 73.10,54.11 72.10,54.16 71.13,53.89 70.16,53.62 70.16,53.62 70.17,53.62 67.96,51.61 65.75,49.60 64.79,47.18 63.82,44.76 61.55,42.34 59.28,39.92 56.51,38.17 53.75,36.41 51.11,35.28 48.48,34.14 46.19,32.94 43.90,31.74 40.61,30.69 37.32,29.65 33.41,26.87 29.49,24.09 27.10,22.36 24.71,20.63 21.81,18.54 18.92,16.46 14.60,13.82 10.29,11.18 3.95,7.48 -2.37,3.77 -2.79,3.43 -3.21,3.10 -3.53,2.67 -3.86,2.24 -4.07,1.74 -4.28,1.25 -4.37,0.71 -4.46,0.18 -4.41,-0.34 -4.37,-0.88 -4.20,-1.39 -4.03,-1.90 -3.75,-2.36 -3.46,-2.81 -3.07,-3.19 -2.68,-3.56 -2.22,-3.83 -1.75,-4.10 -1.24,-4.25 -0.72,-4.40 -0.18,-4.42 0.35,-4.45 0.87,-4.34 1.40,-4.23 1.89,-4.00 2.38,-3.77 2.37,-3.77 L 2.37,-3.77 Z"></path></g><g transform="translate(783.6000671386719 248.39999389648438) rotate(0 30.39996337890625 -13.199996948242188)" stroke="none"><path fill="#2f9e44" d="M 0.52,-5.26 Q 0.52,-5.26 2.83,-5.07 5.13,-4.87 8.25,-4.55 11.37,-4.22 13.65,-3.97 15.93,-3.72 19.37,-3.70 22.82,-3.69 26.16,-3.48 29.50,-3.26 31.88,-3.27 34.27,-3.28 36.79,-3.38 39.31,-3.48 41.28,-6.34 43.25,-9.21 45.08,-11.62 46.90,-14.03 48.98,-16.54 51.06,-19.06 52.78,-21.85 54.49,-24.64 54.57,-27.22 54.66,-29.79 54.85,-30.77 55.05,-31.74 55.54,-32.60 56.03,-33.46 56.77,-34.12 57.52,-34.78 58.43,-35.17 59.34,-35.56 60.33,-35.63 61.32,-35.71 62.29,-35.46 63.25,-35.22 64.08,-34.68 64.92,-34.14 65.53,-33.37 66.15,-32.59 66.49,-31.65 66.83,-30.72 66.85,-29.73 66.87,-28.74 66.57,-27.79 66.28,-26.84 65.70,-26.04 65.11,-25.23 64.30,-24.66 63.49,-24.08 62.54,-23.80 61.59,-23.51 60.60,-23.54 59.61,-23.57 58.68,-23.92 57.75,-24.27 56.98,-24.89 56.21,-25.52 55.68,-26.36 55.15,-27.20 54.91,-28.16 54.68,-29.13 54.76,-30.12 54.85,-31.11 55.24,-32.02 55.64,-32.93 56.31,-33.66 56.98,-34.40 57.84,-34.88 58.71,-35.37 59.68,-35.55 60.66,-35.73 61.64,-35.59 62.63,-35.45 63.51,-35.01 64.40,-34.56 65.10,-33.85 65.80,-33.15 66.23,-32.26 66.67,-31.37 66.80,-30.38 66.93,-29.40 66.93,-29.40 66.93,-29.40 66.48,-25.84 66.03,-22.28 64.42,-18.96 62.80,-15.65 61.48,-13.86 60.16,-12.08 58.48,-9.68 56.80,-7.29 55.18,-4.64 53.56,-2.00 51.72,1.00 49.89,4.01 47.44,6.41 45.00,8.82 41.12,9.30 37.23,9.79 34.92,9.68 32.61,9.58 29.98,9.28 27.35,8.97 25.02,8.70 22.68,8.43 18.63,8.30 14.58,8.17 11.41,7.39 8.25,6.62 6.15,6.21 4.06,5.79 1.76,5.53 -0.52,5.26 -1.14,5.12 -1.77,4.99 -2.34,4.70 -2.91,4.42 -3.40,4.00 -3.88,3.59 -4.26,3.07 -4.63,2.55 -4.87,1.96 -5.11,1.37 -5.20,0.74 -5.29,0.11 -5.23,-0.52 -5.16,-1.15 -4.95,-1.76 -4.74,-2.36 -4.38,-2.89 -4.03,-3.42 -3.56,-3.86 -3.09,-4.29 -2.54,-4.60 -1.98,-4.91 -1.36,-5.07 -0.74,-5.24 -0.11,-5.25 0.52,-5.26 0.52,-5.26 L 0.52,-5.26 Z"></path></g><g transform="translate(812.3999938964844 289.1999816894531) rotate(0 155.859375 33.599999999999994)"><text x="0" y="0" font-family="Cascadia, Segoe UI Emoji" font-size="28px" fill="#2f9e44" text-anchor="start" style="white-space: pre;" direction="ltr" dominant-baseline="text-before-edge">default constructor</text><text x="0" y="33.6" font-family="Cascadia, Segoe UI Emoji" font-size="28px" fill="#2f9e44" text-anchor="start" style="white-space: pre;" direction="ltr" dominant-baseline="text-before-edge">calling</text></g></svg>