<svg version="1.1" xmlns="http://www.w3.org/2000/svg" viewBox="0 0 1694.6808895937413 946.3706131156118" width="3389.3617791874826" height="1892.7412262312237">
  <!-- svg-source:excalidraw -->
  
  <defs>
    <style class="style-fonts">
      @font-face {
        font-family: "Virgil";
        src: url("https://excalidraw.com/Virgil.woff2");
      }
      @font-face {
        font-family: "Cascadia";
        src: url("https://excalidraw.com/Cascadia.woff2");
      }
      @font-face {
        font-family: "Assistant";
        src: url("https://excalidraw.com/Assistant-Regular.woff2");
      }
    </style>
    
  </defs>
  <rect x="0" y="0" width="1694.6808895937413" height="946.3706131156118" fill="#ffffff"></rect><g transform="translate(198.5602997085374 12.124654525363184) rotate(0.22891509082142164 532.7080078125 461.0606520324427)"><text x="0" y="0" font-family="Cascadia, Segoe UI Emoji" font-size="25.61448066846904px" fill="#1e1e1e" text-anchor="start" style="white-space: pre;" direction="ltr" dominant-baseline="text-before-edge">class Building </text><text x="0" y="30.737376802162846" font-family="Cascadia, Segoe UI Emoji" font-size="25.61448066846904px" fill="#1e1e1e" text-anchor="start" style="white-space: pre;" direction="ltr" dominant-baseline="text-before-edge">{</text><text x="0" y="61.47475360432569" font-family="Cascadia, Segoe UI Emoji" font-size="25.61448066846904px" fill="#1e1e1e" text-anchor="start" style="white-space: pre;" direction="ltr" dominant-baseline="text-before-edge">    int floors;</text><text x="0" y="92.21213040648854" font-family="Cascadia, Segoe UI Emoji" font-size="25.61448066846904px" fill="#1e1e1e" text-anchor="start" style="white-space: pre;" direction="ltr" dominant-baseline="text-before-edge">    int noOfRooms;</text><text x="0" y="122.94950720865138" font-family="Cascadia, Segoe UI Emoji" font-size="25.61448066846904px" fill="#1e1e1e" text-anchor="start" style="white-space: pre;" direction="ltr" dominant-baseline="text-before-edge">    boolean isLiftAvailable;</text><text x="0" y="153.68688401081423" font-family="Cascadia, Segoe UI Emoji" font-size="25.61448066846904px" fill="#1e1e1e" text-anchor="start" style="white-space: pre;" direction="ltr" dominant-baseline="text-before-edge">    double height;</text><text x="0" y="184.42426081297708" font-family="Cascadia, Segoe UI Emoji" font-size="25.61448066846904px" fill="#1e1e1e" text-anchor="start" style="white-space: pre;" direction="ltr" dominant-baseline="text-before-edge">    double width;</text><text x="0" y="215.1616376151399" font-family="Cascadia, Segoe UI Emoji" font-size="25.61448066846904px" fill="#1e1e1e" text-anchor="start" style="white-space: pre;" direction="ltr" dominant-baseline="text-before-edge">    String ownerName;</text><text x="0" y="245.89901441730277" font-family="Cascadia, Segoe UI Emoji" font-size="25.61448066846904px" fill="#1e1e1e" text-anchor="start" style="white-space: pre;" direction="ltr" dominant-baseline="text-before-edge"></text><text x="0" y="276.6363912194656" font-family="Cascadia, Segoe UI Emoji" font-size="25.61448066846904px" fill="#1e1e1e" text-anchor="start" style="white-space: pre;" direction="ltr" dominant-baseline="text-before-edge">    Building(int f,int r,boolean b,double h,double w,String o)</text><text x="0" y="307.37376802162845" font-family="Cascadia, Segoe UI Emoji" font-size="25.61448066846904px" fill="#1e1e1e" text-anchor="start" style="white-space: pre;" direction="ltr" dominant-baseline="text-before-edge">    {</text><text x="0" y="338.1111448237913" font-family="Cascadia, Segoe UI Emoji" font-size="25.61448066846904px" fill="#1e1e1e" text-anchor="start" style="white-space: pre;" direction="ltr" dominant-baseline="text-before-edge">        System.out.println("parameterized constructor called");</text><text x="0" y="368.84852162595416" font-family="Cascadia, Segoe UI Emoji" font-size="25.61448066846904px" fill="#1e1e1e" text-anchor="start" style="white-space: pre;" direction="ltr" dominant-baseline="text-before-edge">        floors=f;</text><text x="0" y="399.585898428117" font-family="Cascadia, Segoe UI Emoji" font-size="25.61448066846904px" fill="#1e1e1e" text-anchor="start" style="white-space: pre;" direction="ltr" dominant-baseline="text-before-edge">        noOfRooms=r;</text><text x="0" y="430.3232752302798" font-family="Cascadia, Segoe UI Emoji" font-size="25.61448066846904px" fill="#1e1e1e" text-anchor="start" style="white-space: pre;" direction="ltr" dominant-baseline="text-before-edge">        isLiftAvailable=b;</text><text x="0" y="461.0606520324427" font-family="Cascadia, Segoe UI Emoji" font-size="25.61448066846904px" fill="#1e1e1e" text-anchor="start" style="white-space: pre;" direction="ltr" dominant-baseline="text-before-edge">        height=h;</text><text x="0" y="491.79802883460553" font-family="Cascadia, Segoe UI Emoji" font-size="25.61448066846904px" fill="#1e1e1e" text-anchor="start" style="white-space: pre;" direction="ltr" dominant-baseline="text-before-edge">        width=w;</text><text x="0" y="522.5354056367684" font-family="Cascadia, Segoe UI Emoji" font-size="25.61448066846904px" fill="#1e1e1e" text-anchor="start" style="white-space: pre;" direction="ltr" dominant-baseline="text-before-edge">        ownerName=o;</text><text x="0" y="553.2727824389312" font-family="Cascadia, Segoe UI Emoji" font-size="25.61448066846904px" fill="#1e1e1e" text-anchor="start" style="white-space: pre;" direction="ltr" dominant-baseline="text-before-edge">    }</text><text x="0" y="584.010159241094" font-family="Cascadia, Segoe UI Emoji" font-size="25.61448066846904px" fill="#1e1e1e" text-anchor="start" style="white-space: pre;" direction="ltr" dominant-baseline="text-before-edge">}</text><text x="0" y="614.7475360432569" font-family="Cascadia, Segoe UI Emoji" font-size="25.61448066846904px" fill="#1e1e1e" text-anchor="start" style="white-space: pre;" direction="ltr" dominant-baseline="text-before-edge"></text><text x="0" y="645.4849128454198" font-family="Cascadia, Segoe UI Emoji" font-size="25.61448066846904px" fill="#1e1e1e" text-anchor="start" style="white-space: pre;" direction="ltr" dominant-baseline="text-before-edge">public class ParameterizedConstructor</text><text x="0" y="676.2222896475826" font-family="Cascadia, Segoe UI Emoji" font-size="25.61448066846904px" fill="#1e1e1e" text-anchor="start" style="white-space: pre;" direction="ltr" dominant-baseline="text-before-edge">{</text><text x="0" y="706.9596664497454" font-family="Cascadia, Segoe UI Emoji" font-size="25.61448066846904px" fill="#1e1e1e" text-anchor="start" style="white-space: pre;" direction="ltr" dominant-baseline="text-before-edge">    public static void main(String[] args) </text><text x="0" y="737.6970432519083" font-family="Cascadia, Segoe UI Emoji" font-size="25.61448066846904px" fill="#1e1e1e" text-anchor="start" style="white-space: pre;" direction="ltr" dominant-baseline="text-before-edge">    {</text><text x="0" y="768.4344200540711" font-family="Cascadia, Segoe UI Emoji" font-size="25.61448066846904px" fill="#1e1e1e" text-anchor="start" style="white-space: pre;" direction="ltr" dominant-baseline="text-before-edge">        </text><text x="0" y="799.171796856234" font-family="Cascadia, Segoe UI Emoji" font-size="25.61448066846904px" fill="#1e1e1e" text-anchor="start" style="white-space: pre;" direction="ltr" dominant-baseline="text-before-edge">        Building b3=new Building(20,100,true,2200,4800,"Ravi Chauhan");</text><text x="0" y="829.9091736583969" font-family="Cascadia, Segoe UI Emoji" font-size="25.61448066846904px" fill="#1e1e1e" text-anchor="start" style="white-space: pre;" direction="ltr" dominant-baseline="text-before-edge">        System.out.println(b3.ownerName);</text><text x="0" y="860.6465504605596" font-family="Cascadia, Segoe UI Emoji" font-size="25.61448066846904px" fill="#1e1e1e" text-anchor="start" style="white-space: pre;" direction="ltr" dominant-baseline="text-before-edge">    }</text><text x="0" y="891.3839272627225" font-family="Cascadia, Segoe UI Emoji" font-size="25.61448066846904px" fill="#1e1e1e" text-anchor="start" style="white-space: pre;" direction="ltr" dominant-baseline="text-before-edge">}</text></g><g transform="translate(507.33332316080714 807.0009902778775) rotate(0 79.33334350585938 -2.6666768391927462)" stroke="none"><path fill="#2f9e44" d="M -0.80,-4.81 Q -0.80,-4.81 3.84,-5.29 8.49,-5.76 12.95,-5.89 17.41,-6.02 20.02,-6.30 22.63,-6.57 25.57,-6.94 28.52,-7.30 31.25,-7.53 33.99,-7.77 37.60,-7.92 41.21,-8.08 45.55,-8.69 49.88,-9.31 53.56,-9.58 57.24,-9.84 60.32,-9.97 63.40,-10.10 66.25,-10.17 69.10,-10.24 72.68,-10.44 76.27,-10.65 79.68,-10.86 83.10,-11.07 85.49,-11.18 87.88,-11.29 92.19,-11.29 96.50,-11.28 98.66,-11.28 100.81,-11.28 104.03,-11.13 107.24,-10.98 109.38,-11.01 111.51,-11.03 114.11,-11.15 116.72,-11.26 119.37,-11.36 122.03,-11.45 124.53,-11.52 127.03,-11.59 129.45,-11.66 131.87,-11.72 134.32,-11.78 136.78,-11.83 139.03,-11.88 141.27,-11.93 143.46,-12.01 145.65,-12.08 148.71,-12.15 151.78,-12.23 157.88,-10.37 163.98,-8.51 164.56,-7.54 165.14,-6.57 165.38,-5.47 165.62,-4.37 165.50,-3.25 165.38,-2.13 164.90,-1.10 164.43,-0.08 163.65,0.73 162.88,1.55 161.88,2.07 160.88,2.60 159.77,2.78 158.66,2.97 157.55,2.78 156.43,2.60 155.44,2.07 154.44,1.54 153.66,0.72 152.89,-0.09 152.42,-1.11 151.94,-2.13 151.82,-3.26 151.70,-4.38 151.94,-5.48 152.19,-6.58 152.77,-7.55 153.35,-8.51 154.21,-9.24 155.07,-9.97 156.12,-10.39 157.17,-10.80 158.29,-10.86 159.42,-10.92 160.51,-10.62 161.59,-10.32 162.53,-9.69 163.46,-9.05 164.14,-8.15 164.82,-7.26 165.18,-6.19 165.54,-5.12 165.54,-3.99 165.54,-2.86 165.18,-1.79 164.82,-0.73 164.13,0.16 163.45,1.06 162.52,1.69 161.58,2.32 160.50,2.62 159.41,2.93 158.28,2.86 157.16,2.80 156.11,2.38 155.06,1.97 154.20,1.23 153.35,0.50 153.35,0.50 153.35,0.51 152.56,1.03 151.78,1.56 148.71,1.49 145.65,1.41 143.46,1.34 141.27,1.27 139.03,1.22 136.78,1.17 134.32,1.11 131.87,1.06 129.45,0.99 127.03,0.92 124.53,0.85 122.03,0.78 119.37,0.69 116.72,0.60 114.11,0.48 111.51,0.37 109.38,0.34 107.24,0.32 104.03,0.47 100.81,0.62 98.66,0.62 96.50,0.61 92.19,0.62 87.88,0.63 85.49,0.52 83.11,0.40 79.72,0.21 76.34,0.01 72.82,-0.11 69.31,-0.25 66.59,-0.20 63.86,-0.15 61.04,-0.00 58.21,0.14 55.21,0.52 52.21,0.91 46.71,1.83 41.22,2.75 37.62,2.60 34.02,2.45 31.35,2.24 28.68,2.04 25.88,1.85 23.08,1.65 20.54,1.65 18.00,1.65 13.95,2.17 9.90,2.70 5.35,3.75 0.80,4.81 0.21,4.83 -0.37,4.86 -0.94,4.74 -1.52,4.63 -2.05,4.38 -2.59,4.13 -3.04,3.76 -3.50,3.39 -3.86,2.92 -4.21,2.45 -4.44,1.91 -4.68,1.37 -4.77,0.79 -4.87,0.21 -4.82,-0.37 -4.78,-0.95 -4.60,-1.51 -4.41,-2.07 -4.10,-2.57 -3.79,-3.07 -3.36,-3.47 -2.94,-3.88 -2.43,-4.18 -1.93,-4.48 -1.36,-4.64 -0.80,-4.81 -0.80,-4.81 L -0.80,-4.81 Z"></path></g><g transform="translate(555.3334045410156 801.667636599492) rotate(0 -256.6666920979818 -233.3333333333333)" stroke="none"><path fill="#2f9e44" d="M -1.68,4.22 Q -1.68,4.22 -5.44,2.48 -9.19,0.74 -11.95,-0.20 -14.70,-1.15 -18.28,-2.90 -21.86,-4.64 -24.90,-6.08 -27.94,-7.52 -30.34,-7.90 -32.73,-8.29 -34.88,-8.39 -37.02,-8.50 -39.77,-8.56 -42.53,-8.62 -44.88,-8.58 -47.23,-8.54 -50.44,-8.95 -53.65,-9.37 -57.14,-10.43 -60.64,-11.49 -64.58,-12.89 -68.53,-14.29 -70.86,-14.64 -73.20,-14.98 -76.14,-15.99 -79.08,-17.00 -81.28,-17.23 -83.49,-17.47 -85.94,-17.57 -88.39,-17.66 -91.58,-17.56 -94.77,-17.46 -97.30,-17.31 -99.83,-17.17 -103.62,-17.08 -107.40,-17.00 -112.67,-17.10 -117.95,-17.19 -120.84,-17.24 -123.73,-17.29 -126.10,-17.27 -128.48,-17.25 -131.02,-17.25 -133.56,-17.25 -135.79,-16.90 -138.02,-16.56 -141.06,-15.90 -144.11,-15.24 -147.03,-14.41 -149.94,-13.58 -153.46,-12.49 -156.98,-11.40 -159.82,-11.05 -162.66,-10.71 -164.93,-10.28 -167.21,-9.85 -171.38,-8.43 -175.55,-7.01 -178.37,-6.14 -181.20,-5.28 -184.29,-4.85 -187.38,-4.42 -190.88,-3.06 -194.38,-1.69 -197.65,-0.84 -200.92,0.00 -204.21,0.65 -207.51,1.31 -211.28,1.84 -215.05,2.37 -218.07,3.01 -221.09,3.64 -224.35,4.26 -227.62,4.89 -231.18,5.18 -234.74,5.46 -237.77,5.61 -240.81,5.77 -243.64,5.86 -246.47,5.96 -248.81,6.06 -251.16,6.16 -254.74,6.88 -258.31,7.60 -261.07,8.39 -263.84,9.19 -267.09,9.97 -270.35,10.75 -272.79,10.87 -275.22,10.99 -279.88,11.69 -284.53,12.40 -287.27,12.57 -290.01,12.73 -293.10,13.85 -296.18,14.96 -298.54,15.28 -300.91,15.59 -303.68,16.20 -306.45,16.81 -310.07,17.20 -313.69,17.60 -316.87,18.22 -320.05,18.84 -324.29,19.07 -328.54,19.29 -331.95,19.67 -335.36,20.05 -340.42,20.39 -345.48,20.72 -351.47,21.14 -357.47,21.57 -360.80,21.89 -364.14,22.21 -369.11,22.15 -374.08,22.10 -381.53,22.01 -388.99,21.93 -396.76,21.86 -404.52,21.78 -411.27,21.72 -418.02,21.65 -425.49,21.61 -432.95,21.56 -438.81,21.52 -444.67,21.49 -449.20,21.07 -453.73,20.66 -458.08,19.68 -462.43,18.70 -467.47,16.69 -472.51,14.69 -477.84,11.45 -483.16,8.22 -486.72,4.79 -490.27,1.36 -493.33,-2.43 -496.38,-6.23 -498.90,-10.66 -501.41,-15.08 -503.62,-19.65 -505.83,-24.22 -507.60,-30.16 -509.36,-36.10 -510.84,-40.82 -512.32,-45.54 -513.37,-52.35 -514.43,-59.15 -514.87,-66.69 -515.32,-74.22 -515.50,-83.94 -515.69,-93.67 -513.82,-103.41 -511.96,-113.16 -510.01,-120.34 -508.05,-127.53 -506.45,-132.52 -504.84,-137.51 -504.41,-140.32 -503.98,-143.13 -503.96,-145.70 -503.95,-148.27 -503.09,-150.56 -502.24,-152.85 -498.67,-159.91 -495.10,-166.96 -491.93,-172.36 -488.75,-177.75 -483.83,-184.36 -478.91,-190.96 -474.98,-197.04 -471.05,-203.12 -468.56,-206.88 -466.07,-210.65 -464.80,-212.82 -463.54,-214.99 -463.26,-217.22 -462.97,-219.46 -461.11,-222.52 -459.24,-225.58 -452.43,-232.44 -445.62,-239.30 -440.21,-246.14 -434.79,-252.97 -429.73,-259.72 -424.67,-266.46 -422.13,-270.04 -419.59,-273.62 -418.85,-276.09 -418.11,-278.57 -417.44,-282.16 -416.77,-285.75 -415.76,-289.54 -414.74,-293.32 -414.09,-296.08 -413.45,-298.84 -413.49,-301.19 -413.54,-303.53 -413.64,-305.96 -413.74,-308.39 -413.85,-310.80 -413.95,-313.21 -414.02,-316.37 -414.08,-319.54 -413.71,-323.96 -413.33,-328.39 -413.20,-330.90 -413.06,-333.41 -412.80,-335.54 -412.54,-337.67 -409.86,-341.05 -407.18,-344.43 -404.82,-346.77 -402.47,-349.10 -397.94,-352.86 -393.42,-356.61 -391.42,-358.81 -389.43,-361.00 -386.38,-363.85 -383.32,-366.69 -381.95,-368.59 -380.59,-370.50 -378.85,-373.09 -377.11,-375.69 -375.55,-379.28 -374.00,-382.88 -372.19,-388.01 -370.38,-393.14 -369.51,-396.36 -368.64,-399.59 -368.50,-401.93 -368.36,-404.27 -368.44,-406.56 -368.51,-408.85 -368.61,-411.07 -368.70,-413.29 -368.72,-417.03 -368.74,-420.77 -368.28,-423.69 -367.81,-426.61 -367.20,-429.06 -366.59,-431.50 -366.29,-434.23 -365.98,-436.95 -365.90,-440.85 -365.81,-444.74 -365.38,-447.34 -364.94,-449.95 -364.33,-452.00 -363.72,-454.04 -363.64,-456.83 -363.55,-459.62 -360.79,-464.11 -358.04,-468.60 -356.26,-470.55 -354.49,-472.51 -352.31,-476.53 -350.14,-480.55 -347.28,-482.88 -344.43,-485.21 -342.49,-486.25 -340.55,-487.29 -338.27,-487.57 -336.00,-487.85 -333.24,-487.99 -330.48,-488.14 -328.21,-488.82 -325.94,-489.50 -323.97,-490.51 -322.00,-491.51 -319.75,-491.88 -317.49,-492.24 -315.45,-492.29 -313.42,-492.35 -312.29,-492.18 -311.17,-492.01 -310.16,-491.49 -309.15,-490.97 -308.36,-490.16 -307.57,-489.34 -307.08,-488.32 -306.59,-487.29 -306.45,-486.16 -306.31,-485.04 -306.54,-483.92 -306.77,-482.81 -307.35,-481.83 -307.92,-480.85 -308.78,-480.10 -309.63,-479.36 -310.68,-478.92 -311.73,-478.49 -312.87,-478.41 -314.00,-478.34 -315.10,-478.63 -316.20,-478.92 -317.14,-479.54 -318.09,-480.17 -318.79,-481.07 -319.49,-481.96 -319.87,-483.03 -320.24,-484.11 -320.26,-485.24 -320.27,-486.38 -319.92,-487.46 -319.57,-488.54 -318.90,-489.45 -318.22,-490.36 -317.29,-491.01 -316.36,-491.66 -315.27,-491.98 -314.17,-492.30 -313.04,-492.25 -311.90,-492.20 -310.84,-491.80 -309.78,-491.39 -308.91,-490.67 -308.03,-489.94 -307.44,-488.97 -306.84,-488.01 -306.58,-486.90 -306.32,-485.80 -306.43,-484.67 -306.54,-483.53 -307.00,-482.50 -307.47,-481.46 -308.24,-480.63 -309.01,-479.79 -310.01,-479.25 -311.00,-478.70 -312.12,-478.50 -313.24,-478.31 -313.24,-478.31 -313.24,-478.31 -315.43,-478.47 -317.62,-478.64 -320.68,-477.09 -323.74,-475.54 -325.94,-475.01 -328.14,-474.48 -330.66,-474.50 -333.18,-474.53 -336.09,-474.30 -339.01,-474.07 -340.50,-472.41 -341.98,-470.75 -343.20,-467.86 -344.42,-464.96 -345.84,-463.22 -347.26,-461.47 -349.34,-458.91 -351.42,-456.35 -352.00,-453.35 -352.57,-450.35 -353.44,-447.43 -354.30,-444.50 -354.50,-440.32 -354.70,-436.14 -354.86,-432.40 -355.01,-428.66 -355.80,-424.70 -356.58,-420.74 -356.61,-416.99 -356.63,-413.24 -356.75,-410.95 -356.87,-408.66 -357.08,-405.90 -357.30,-403.13 -357.92,-399.90 -358.54,-396.67 -360.06,-392.61 -361.59,-388.55 -362.70,-386.63 -363.81,-384.70 -364.52,-381.66 -365.23,-378.62 -367.42,-374.69 -369.60,-370.77 -371.50,-367.82 -373.41,-364.87 -375.20,-362.75 -376.99,-360.62 -379.56,-357.60 -382.14,-354.57 -384.37,-351.98 -386.59,-349.38 -390.20,-345.47 -393.80,-341.56 -397.07,-338.03 -400.33,-334.51 -400.52,-332.35 -400.70,-330.20 -401.22,-326.52 -401.74,-322.85 -401.87,-319.98 -402.00,-317.10 -402.08,-314.15 -402.15,-311.20 -402.28,-308.16 -402.42,-305.12 -402.65,-302.64 -402.88,-300.17 -403.65,-296.64 -404.42,-293.11 -405.89,-289.81 -407.37,-286.51 -408.82,-283.39 -410.26,-280.27 -410.98,-278.17 -411.70,-276.07 -413.08,-273.12 -414.47,-270.17 -416.93,-266.40 -419.40,-262.62 -424.32,-255.67 -429.24,-248.72 -434.67,-241.38 -440.10,-234.04 -446.18,-227.39 -452.27,-220.73 -454.13,-217.84 -456.00,-214.95 -456.99,-213.03 -457.98,-211.11 -459.55,-209.29 -461.12,-207.47 -463.49,-203.66 -465.87,-199.85 -469.78,-193.51 -473.69,-187.17 -478.21,-180.78 -482.73,-174.39 -485.52,-169.07 -488.32,-163.75 -492.36,-155.49 -496.41,-147.24 -497.20,-144.48 -498.00,-141.73 -498.92,-138.81 -499.84,-135.90 -501.41,-131.03 -502.98,-126.15 -504.89,-119.15 -506.80,-112.15 -508.61,-102.95 -510.43,-93.74 -510.25,-84.13 -510.06,-74.53 -509.65,-67.24 -509.23,-59.95 -508.26,-53.53 -507.29,-47.10 -505.79,-42.35 -504.30,-37.59 -502.69,-32.05 -501.07,-26.51 -498.94,-22.10 -496.81,-17.69 -494.52,-13.62 -492.23,-9.55 -489.39,-6.00 -486.55,-2.44 -483.45,0.60 -480.35,3.66 -475.42,6.66 -470.50,9.67 -465.86,11.52 -461.23,13.37 -457.23,14.25 -453.24,15.13 -448.95,15.48 -444.67,15.83 -438.81,15.79 -432.96,15.75 -425.49,15.70 -418.03,15.64 -411.28,15.56 -404.54,15.48 -396.79,15.36 -389.04,15.25 -381.64,15.06 -374.25,14.88 -369.52,14.59 -364.80,14.30 -361.55,14.07 -358.31,13.84 -352.43,12.98 -346.56,12.11 -341.73,11.20 -336.89,10.30 -333.27,9.57 -329.65,8.85 -326.35,8.27 -323.06,7.70 -319.33,6.43 -315.60,5.17 -310.83,4.52 -306.06,3.87 -303.94,3.38 -301.82,2.89 -299.05,2.73 -296.27,2.58 -292.41,1.53 -288.54,0.48 -285.78,0.46 -283.02,0.43 -279.34,-0.07 -275.67,-0.57 -272.60,-0.69 -269.54,-0.80 -266.46,-1.31 -263.38,-1.81 -259.89,-2.33 -256.40,-2.85 -253.84,-3.21 -251.27,-3.56 -248.96,-3.50 -246.64,-3.44 -243.91,-3.45 -241.19,-3.46 -238.36,-3.55 -235.53,-3.64 -232.52,-3.92 -229.50,-4.21 -226.32,-4.92 -223.13,-5.64 -219.99,-6.36 -216.85,-7.09 -213.34,-7.94 -209.83,-8.79 -206.81,-9.58 -203.80,-10.38 -201.25,-11.14 -198.71,-11.90 -196.05,-13.02 -193.39,-14.14 -191.11,-14.70 -188.83,-15.26 -186.65,-15.52 -184.48,-15.79 -182.13,-16.56 -179.78,-17.32 -176.97,-18.49 -174.17,-19.66 -171.75,-20.28 -169.33,-20.90 -164.77,-21.57 -160.21,-22.24 -156.75,-23.08 -153.28,-23.92 -150.27,-25.00 -147.25,-26.08 -143.41,-26.66 -139.58,-27.23 -136.58,-27.65 -133.58,-28.08 -131.03,-28.08 -128.48,-28.07 -126.10,-28.05 -123.73,-28.03 -120.84,-28.08 -117.95,-28.13 -112.67,-28.22 -107.39,-28.32 -103.58,-28.23 -99.77,-28.14 -97.18,-27.95 -94.59,-27.77 -91.17,-27.45 -87.76,-27.14 -84.90,-26.88 -82.05,-26.63 -78.99,-26.03 -75.93,-25.44 -73.70,-24.49 -71.47,-23.55 -68.84,-22.90 -66.22,-22.25 -62.11,-21.32 -58.00,-20.39 -55.17,-19.57 -52.34,-18.76 -49.69,-18.37 -47.03,-17.98 -44.61,-17.84 -42.18,-17.71 -39.11,-17.55 -36.03,-17.38 -33.49,-16.97 -30.94,-16.56 -27.71,-15.72 -24.48,-14.87 -21.49,-13.43 -18.51,-11.98 -15.12,-10.54 -11.74,-9.11 -8.94,-7.99 -6.14,-6.88 -2.22,-5.55 1.68,-4.22 2.16,-3.95 2.64,-3.69 3.05,-3.32 3.45,-2.95 3.76,-2.49 4.06,-2.04 4.24,-1.52 4.43,-1.00 4.48,-0.46 4.54,0.08 4.47,0.62 4.39,1.16 4.19,1.67 3.98,2.18 3.66,2.63 3.34,3.07 2.93,3.43 2.51,3.78 2.02,4.03 1.53,4.27 1.00,4.40 0.46,4.52 -0.08,4.51 -0.62,4.50 -1.15,4.36 -1.68,4.22 -1.68,4.22 L -1.68,4.22 Z"></path></g><g transform="translate(192.66667683919263 292.3342930936327) rotate(0 28.000030517578125 40.666656494140625)" stroke="none"><path fill="#2f9e44" d="M 0.81,-4.50 Q 0.81,-4.50 4.98,-3.48 9.16,-2.46 13.92,-1.57 18.68,-0.69 22.53,0.45 26.37,1.59 29.55,1.95 32.72,2.31 35.21,2.77 37.71,3.23 41.21,3.76 44.71,4.30 47.11,6.72 49.52,9.14 51.34,12.21 53.16,15.29 55.93,17.38 58.70,19.48 59.44,21.90 60.17,24.33 59.90,26.66 59.62,28.99 59.10,32.63 58.59,36.27 57.32,39.20 56.05,42.14 54.32,46.49 52.58,50.84 50.63,54.07 48.67,57.30 47.71,59.63 46.75,61.96 46.35,65.03 45.94,68.10 45.96,70.30 45.98,72.49 45.52,75.61 45.07,78.74 44.95,80.32 44.83,81.90 44.58,82.87 44.33,83.84 43.78,84.67 43.23,85.51 42.44,86.13 41.65,86.75 40.71,87.09 39.77,87.42 38.76,87.44 37.76,87.46 36.81,87.15 35.85,86.85 35.04,86.26 34.23,85.66 33.66,84.84 33.08,84.02 32.80,83.06 32.51,82.10 32.55,81.10 32.59,80.10 32.95,79.16 33.30,78.22 33.94,77.45 34.57,76.67 35.42,76.14 36.27,75.61 37.25,75.38 38.22,75.15 39.22,75.24 40.22,75.33 41.14,75.74 42.05,76.14 42.79,76.82 43.53,77.50 44.02,78.38 44.50,79.25 44.68,80.24 44.86,81.23 44.71,82.22 44.56,83.21 44.11,84.10 43.65,85.00 42.94,85.70 42.22,86.40 41.32,86.83 40.42,87.27 39.42,87.39 38.43,87.52 37.45,87.32 36.46,87.12 35.60,86.62 34.73,86.12 34.07,85.36 33.41,84.61 33.02,83.68 32.63,82.76 32.56,81.76 32.49,80.76 32.49,80.76 32.49,80.76 33.24,77.52 34.00,74.29 34.15,71.52 34.30,68.75 34.74,66.13 35.18,63.51 35.77,60.73 36.37,57.96 37.53,54.82 38.70,51.69 39.93,49.28 41.16,46.87 42.05,43.70 42.95,40.53 44.30,37.37 45.65,34.20 46.59,31.50 47.53,28.80 47.05,26.42 46.56,24.04 44.89,21.53 43.23,19.01 41.37,15.48 39.50,11.94 35.62,10.81 31.75,9.67 28.03,9.12 24.31,8.57 20.96,7.58 17.61,6.59 12.65,6.06 7.70,5.53 3.44,5.01 -0.81,4.50 -1.34,4.34 -1.87,4.17 -2.34,3.89 -2.81,3.60 -3.20,3.21 -3.60,2.82 -3.88,2.35 -4.17,1.88 -4.33,1.35 -4.50,0.83 -4.53,0.28 -4.57,-0.27 -4.47,-0.81 -4.37,-1.35 -4.14,-1.86 -3.92,-2.36 -3.58,-2.79 -3.24,-3.23 -2.80,-3.57 -2.37,-3.91 -1.87,-4.14 -1.36,-4.36 -0.82,-4.47 -0.28,-4.57 0.26,-4.53 0.81,-4.50 0.81,-4.50 L 0.81,-4.50 Z"></path></g><g transform="translate(1027.3333231608071 801.667636599492) rotate(0 95.33340454101562 -2.6666768391926894)" stroke="none"><path fill="#1971c2" d="M 0,-3.13 Q 0,-3.13 4.21,-3.07 8.43,-3.00 12.90,-2.95 17.38,-2.90 21.96,-2.86 26.55,-2.82 31.95,-2.80 37.35,-2.77 41.94,-2.75 46.54,-2.73 51.17,-2.71 55.81,-2.70 61.23,-2.69 66.65,-2.68 70.75,-3.05 74.85,-3.42 79.68,-3.96 84.51,-4.50 91.92,-5.49 99.32,-6.48 105.24,-6.91 111.17,-7.34 115.22,-7.57 119.27,-7.81 123.04,-8.37 126.81,-8.94 129.70,-9.29 132.59,-9.63 135.30,-9.89 138.00,-10.15 140.13,-10.34 142.26,-10.53 144.45,-10.69 146.63,-10.85 149.74,-11.03 152.84,-11.21 157.14,-11.20 161.44,-11.19 164.89,-11.26 168.35,-11.33 171.15,-11.41 173.96,-11.50 176.65,-11.57 179.35,-11.64 181.47,-11.70 183.60,-11.77 185.93,-11.79 188.27,-11.81 192.29,-8.94 196.31,-6.07 196.71,-5.08 197.11,-4.09 197.16,-3.02 197.22,-1.95 196.94,-0.92 196.65,0.10 196.06,0.98 195.46,1.86 194.61,2.51 193.76,3.16 192.75,3.50 191.73,3.84 190.67,3.84 189.60,3.84 188.59,3.50 187.57,3.16 186.72,2.52 185.87,1.87 185.27,0.99 184.67,0.10 184.39,-0.92 184.10,-1.94 184.16,-3.01 184.22,-4.08 184.61,-5.07 185.00,-6.06 185.70,-6.87 186.39,-7.69 187.30,-8.24 188.22,-8.79 189.26,-9.02 190.30,-9.25 191.36,-9.14 192.42,-9.02 193.39,-8.57 194.36,-8.13 195.14,-7.39 195.91,-6.66 196.41,-5.72 196.91,-4.77 197.09,-3.72 197.26,-2.67 197.09,-1.61 196.92,-0.56 196.42,0.38 195.92,1.32 195.14,2.05 194.37,2.79 193.40,3.24 192.43,3.69 191.37,3.80 190.31,3.92 189.26,3.69 188.22,3.46 187.31,2.91 186.39,2.36 185.70,1.55 185.01,0.73 185.01,0.73 185.01,0.74 184.30,0.92 183.60,1.11 181.47,1.04 179.35,0.97 176.65,0.90 173.96,0.83 171.15,0.75 168.35,0.66 164.89,0.59 161.44,0.52 157.14,0.53 152.84,0.55 149.74,0.36 146.63,0.18 144.45,0.02 142.26,-0.13 140.14,-0.32 138.01,-0.50 135.32,-0.75 132.62,-1.00 129.79,-1.31 126.95,-1.62 123.23,-1.97 119.51,-2.32 115.53,-2.19 111.55,-2.06 105.79,-1.64 100.03,-1.22 92.57,-0.22 85.11,0.78 80.22,1.34 75.33,1.89 70.99,2.28 66.65,2.68 61.23,2.69 55.81,2.70 51.17,2.71 46.54,2.73 41.94,2.75 37.35,2.77 31.95,2.80 26.55,2.82 21.96,2.86 17.38,2.90 12.90,2.95 8.43,3.00 4.21,3.07 0,3.13 -0.37,3.08 -0.74,3.03 -1.10,2.90 -1.45,2.77 -1.76,2.55 -2.07,2.34 -2.32,2.06 -2.57,1.77 -2.75,1.44 -2.92,1.10 -3.01,0.74 -3.10,0.37 -3.10,-0.00 -3.10,-0.37 -3.01,-0.74 -2.92,-1.11 -2.75,-1.44 -2.57,-1.77 -2.32,-2.06 -2.07,-2.34 -1.76,-2.55 -1.45,-2.77 -1.10,-2.90 -0.74,-3.03 -0.37,-3.08 0.00,-3.13 0.00,-3.13 L 0,-3.13 Z"></path></g><g transform="translate(1138.0001322428384 793.6676569445441) rotate(0 137.33327229817712 -294.000015258789)" stroke="none"><path fill="#1971c2" d="M -4.32,0 Q -4.32,0 -4.43,-2.29 -4.55,-4.59 -4.78,-7.85 -5.01,-11.10 -4.99,-14.06 -4.97,-17.01 -4.07,-20.73 -3.17,-24.45 -1.80,-28.48 -0.44,-32.51 1.87,-37.14 4.19,-41.76 5.84,-44.90 7.49,-48.04 8.39,-50.40 9.29,-52.76 12.43,-56.74 15.58,-60.73 18.70,-65.55 21.83,-70.36 26.35,-76.73 30.87,-83.10 36.27,-90.38 41.67,-97.67 46.31,-103.47 50.96,-109.27 58.51,-115.38 66.07,-121.48 73.85,-127.08 81.64,-132.68 89.55,-138.11 97.46,-143.55 107.25,-151.53 117.03,-159.51 127.74,-168.30 138.46,-177.08 152.30,-186.62 166.15,-196.17 175.80,-203.24 185.45,-210.31 193.75,-216.75 202.06,-223.20 208.67,-228.25 215.29,-233.30 222.26,-239.23 229.23,-245.17 235.57,-251.83 241.91,-258.49 247.34,-264.06 252.77,-269.62 256.95,-274.25 261.14,-278.87 265.55,-284.60 269.96,-290.34 273.32,-295.77 276.68,-301.19 281.60,-308.93 286.52,-316.66 288.95,-321.03 291.38,-325.39 293.93,-330.66 296.48,-335.92 298.71,-340.84 300.95,-345.76 301.65,-348.57 302.35,-351.37 302.54,-354.25 302.73,-357.12 302.74,-359.88 302.75,-362.64 302.68,-365.34 302.62,-368.03 302.72,-371.85 302.83,-375.66 302.92,-379.59 303.01,-383.52 303.15,-389.79 303.29,-396.06 303.39,-401.02 303.50,-405.99 303.19,-410.27 302.89,-414.55 302.03,-419.75 301.17,-424.96 300.05,-430.64 298.94,-436.32 297.70,-443.38 296.46,-450.45 294.42,-459.91 292.38,-469.36 291.13,-475.73 289.87,-482.10 288.96,-487.51 288.04,-492.92 286.18,-498.46 284.31,-504.00 279.71,-514.37 275.11,-524.75 271.61,-532.25 268.12,-539.75 263.26,-547.40 258.40,-555.05 255.58,-559.08 252.75,-563.10 250.45,-564.85 248.15,-566.61 244.96,-568.96 241.78,-571.32 238.62,-572.96 235.45,-574.59 232.48,-575.11 229.50,-575.63 226.01,-576.69 222.51,-577.76 217.23,-579.89 211.95,-582.02 206.98,-582.86 202.01,-583.71 197.21,-584.12 192.41,-584.52 184.64,-584.72 176.87,-584.91 170.87,-585.01 164.86,-585.10 161.16,-585.04 157.45,-584.97 153.97,-584.87 150.48,-584.77 145.55,-584.86 140.62,-584.94 135.84,-585.00 131.06,-585.06 126.73,-585.10 122.40,-585.14 117.87,-585.18 113.35,-585.21 109.89,-585.07 106.44,-584.93 101.14,-584.99 95.83,-585.05 92.81,-584.87 89.79,-584.69 82.54,-584.02 75.28,-583.36 70.66,-582.72 66.04,-582.09 62.59,-581.32 59.14,-580.56 56.81,-580.04 54.47,-579.52 50.51,-577.27 46.54,-575.01 44.32,-573.47 42.10,-571.93 37.13,-570.11 32.16,-568.30 29.27,-566.82 26.37,-565.35 24.77,-563.74 23.17,-562.12 20.86,-560.63 18.54,-559.13 16.11,-557.40 13.67,-555.67 10.82,-554.43 7.97,-553.19 4.03,-549.96 0.10,-546.73 -1.55,-545.22 -3.21,-543.71 -4.87,-541.43 -6.54,-539.14 -8.96,-536.48 -11.38,-533.82 -13.34,-531.89 -15.30,-529.96 -17.87,-527.16 -20.43,-524.36 -22.43,-521.17 -24.43,-517.99 -24.88,-515.44 -25.34,-512.89 -25.28,-510.39 -25.22,-507.88 -25.20,-505.94 -25.18,-503.99 -25.36,-502.91 -25.54,-501.82 -26.05,-500.84 -26.57,-499.87 -27.37,-499.11 -28.17,-498.35 -29.17,-497.89 -30.17,-497.43 -31.27,-497.31 -32.37,-497.19 -33.44,-497.43 -34.52,-497.67 -35.46,-498.23 -36.41,-498.80 -37.12,-499.64 -37.83,-500.48 -38.24,-501.51 -38.65,-502.53 -38.71,-503.63 -38.77,-504.73 -38.47,-505.80 -38.18,-506.86 -37.56,-507.77 -36.94,-508.68 -36.06,-509.35 -35.18,-510.02 -34.14,-510.37 -33.10,-510.72 -31.99,-510.72 -30.89,-510.72 -29.85,-510.37 -28.80,-510.01 -27.92,-509.35 -27.05,-508.68 -26.43,-507.77 -25.81,-506.85 -25.52,-505.79 -25.22,-504.73 -25.28,-503.63 -25.34,-502.53 -25.75,-501.50 -26.16,-500.48 -26.87,-499.64 -27.59,-498.80 -28.53,-498.23 -29.48,-497.66 -30.55,-497.43 -31.63,-497.19 -32.73,-497.31 -33.82,-497.43 -34.82,-497.89 -35.82,-498.36 -36.62,-499.12 -37.42,-499.87 -37.94,-500.85 -38.45,-501.82 -38.63,-502.91 -38.81,-504.00 -38.81,-504.00 -38.81,-504.00 -38.74,-507.84 -38.68,-511.69 -38.56,-513.93 -38.44,-516.17 -37.99,-518.46 -37.54,-520.76 -35.63,-523.58 -33.73,-526.40 -31.44,-529.61 -29.16,-532.81 -26.87,-535.13 -24.59,-537.45 -23.06,-539.11 -21.52,-540.77 -19.30,-542.55 -17.08,-544.34 -15.13,-546.24 -13.18,-548.15 -11.67,-549.87 -10.15,-551.59 -8.21,-553.23 -6.28,-554.87 -3.98,-556.76 -1.67,-558.64 1.07,-560.82 3.83,-563.00 7.33,-564.23 10.83,-565.46 14.21,-567.00 17.59,-568.54 20.12,-570.55 22.65,-572.55 25.86,-574.17 29.08,-575.80 33.07,-577.66 37.06,-579.53 39.69,-581.24 42.33,-582.94 44.37,-583.89 46.41,-584.84 49.98,-585.75 53.55,-586.66 55.74,-586.72 57.93,-586.79 61.54,-587.39 65.14,-588.00 69.89,-588.78 74.64,-589.57 82.21,-590.43 89.79,-591.30 92.81,-591.12 95.83,-590.94 101.14,-591.00 106.44,-591.06 109.89,-590.92 113.35,-590.78 117.87,-590.81 122.40,-590.84 126.73,-590.88 131.06,-590.93 135.84,-590.98 140.63,-591.04 145.56,-591.11 150.50,-591.18 154.00,-591.06 157.50,-590.94 161.21,-590.82 164.92,-590.69 170.95,-590.66 176.98,-590.63 184.91,-590.51 192.84,-590.40 197.91,-590.09 202.98,-589.77 208.60,-588.92 214.22,-588.07 219.44,-586.20 224.66,-584.34 227.83,-583.22 230.99,-582.10 234.68,-581.09 238.36,-580.07 241.84,-578.11 245.32,-576.14 248.75,-573.63 252.18,-571.12 254.61,-568.64 257.05,-566.16 259.96,-562.02 262.87,-557.88 267.89,-549.94 272.92,-541.99 276.44,-534.45 279.97,-526.90 284.67,-516.30 289.37,-505.70 291.35,-499.77 293.33,-493.84 294.26,-488.49 295.18,-483.15 296.45,-476.84 297.73,-470.53 299.82,-460.98 301.92,-451.43 303.21,-444.44 304.49,-437.45 305.69,-431.70 306.90,-425.96 307.90,-420.51 308.90,-415.07 309.36,-410.53 309.82,-405.99 309.92,-401.02 310.02,-396.05 310.15,-389.77 310.28,-383.50 310.34,-379.55 310.40,-375.60 310.44,-371.71 310.49,-367.82 310.28,-365.01 310.06,-362.20 309.73,-359.23 309.39,-356.26 308.77,-352.86 308.15,-349.46 306.94,-346.53 305.73,-343.59 303.47,-338.61 301.21,-333.63 298.59,-328.23 295.97,-322.83 293.46,-318.34 290.95,-313.84 286.05,-306.13 281.15,-298.42 277.64,-292.78 274.13,-287.13 269.59,-281.23 265.04,-275.34 260.79,-270.64 256.54,-265.94 251.13,-260.40 245.72,-254.85 239.19,-248.00 232.66,-241.15 225.58,-235.12 218.50,-229.10 211.90,-224.05 205.31,-219.01 196.95,-212.52 188.60,-206.02 178.89,-198.90 169.18,-191.77 155.53,-182.34 141.87,-172.92 131.17,-164.11 120.47,-155.31 110.52,-147.17 100.58,-139.03 92.75,-133.59 84.91,-128.15 77.29,-122.60 69.66,-117.04 62.61,-111.32 55.56,-105.61 51.09,-99.84 46.62,-94.07 41.40,-86.75 36.18,-79.44 31.94,-73.10 27.70,-66.76 24.65,-61.51 21.60,-56.27 19.23,-52.82 16.87,-49.37 15.63,-46.87 14.39,-44.36 12.81,-41.46 11.23,-38.56 9.55,-34.40 7.87,-30.24 7.05,-26.20 6.24,-22.17 5.60,-19.56 4.97,-16.95 4.99,-14.02 5.01,-11.10 4.78,-7.85 4.55,-4.59 4.43,-2.29 4.32,0 4.25,0.51 4.19,1.03 4.00,1.52 3.82,2.00 3.52,2.43 3.23,2.86 2.84,3.21 2.45,3.55 1.99,3.79 1.53,4.03 1.02,4.16 0.52,4.28 -0.00,4.28 -0.52,4.28 -1.02,4.16 -1.53,4.03 -1.99,3.79 -2.45,3.55 -2.84,3.20 -3.23,2.86 -3.52,2.43 -3.82,2.00 -4.01,1.52 -4.19,1.03 -4.25,0.51 -4.32,-0.00 -4.32,-0.00 L -4.32,0 Z"></path></g><g transform="translate(1084.6666971842446 260.33427274858064) rotate(0 30.666656494140625 17.333348592122377)" stroke="none"><path fill="#1971c2" d="M 4.20,-3.15 Q 4.20,-3.15 5.41,-1.65 6.62,-0.14 8.02,2.36 9.41,4.87 10.63,6.87 11.85,8.88 13.87,9.89 15.90,10.90 17.36,12.89 18.82,14.88 19.89,17.72 20.96,20.55 22.12,23.16 23.28,25.76 24.24,27.78 25.21,29.80 22.47,28.98 19.73,28.15 17.04,29.53 14.35,30.91 14.95,28.54 15.55,26.16 16.54,24.07 17.53,21.98 19.34,20.13 21.15,18.28 23.71,17.69 26.27,17.10 29.76,16.49 33.25,15.88 35.59,15.14 37.93,14.41 40.04,13.90 42.16,13.38 44.89,13.17 47.62,12.97 49.95,12.90 52.28,12.84 54.92,12.81 57.57,12.79 59.45,12.78 61.33,12.77 62.48,12.96 63.64,13.15 64.67,13.70 65.70,14.24 66.50,15.09 67.31,15.94 67.80,17.00 68.29,18.06 68.42,19.22 68.54,20.39 68.29,21.53 68.04,22.67 67.44,23.67 66.84,24.67 65.94,25.43 65.05,26.19 63.97,26.62 62.88,27.05 61.71,27.11 60.55,27.18 59.42,26.87 58.29,26.55 57.33,25.90 56.36,25.24 55.65,24.31 54.94,23.38 54.57,22.27 54.20,21.16 54.20,19.99 54.20,18.83 54.57,17.72 54.94,16.61 55.65,15.68 56.36,14.75 57.33,14.09 58.30,13.44 59.42,13.12 60.55,12.81 61.72,12.88 62.88,12.94 63.97,13.37 65.05,13.80 65.95,14.56 66.84,15.32 67.44,16.32 68.04,17.32 68.29,18.46 68.54,19.61 68.42,20.77 68.29,21.93 67.80,22.99 67.31,24.05 66.50,24.90 65.70,25.75 64.67,26.30 63.63,26.84 62.48,27.03 61.33,27.22 61.33,27.22 61.33,27.22 58.72,27.20 56.10,27.18 53.56,27.17 51.01,27.15 48.82,27.18 46.62,27.20 44.06,27.81 41.51,28.43 37.85,29.16 34.20,29.90 31.71,29.04 29.23,28.17 28.60,30.52 27.97,32.86 26.81,35.18 25.64,37.49 23.36,38.51 21.07,39.52 17.24,37.25 13.41,34.99 12.08,31.96 10.76,28.93 9.68,25.81 8.60,22.69 7.75,20.52 6.90,18.35 4.40,15.60 1.90,12.85 -0.05,9.56 -2.02,6.28 -3.11,4.71 -4.20,3.15 -4.52,2.60 -4.83,2.05 -5.01,1.44 -5.18,0.83 -5.21,0.20 -5.23,-0.42 -5.11,-1.04 -4.98,-1.66 -4.71,-2.24 -4.43,-2.81 -4.03,-3.30 -3.63,-3.79 -3.12,-4.17 -2.62,-4.55 -2.04,-4.80 -1.45,-5.04 -0.83,-5.14 -0.20,-5.25 0.42,-5.19 1.05,-5.14 1.65,-4.94 2.25,-4.74 2.79,-4.40 3.32,-4.06 3.76,-3.60 4.20,-3.15 4.20,-3.15 L 4.20,-3.15 Z"></path></g><g transform="translate(316.66671752929676 567.0009394152472) rotate(0 91.3333129882813 2.0000203450521212)" stroke="none"><path fill="#1971c2" d="M 0,-4.62 Q 0,-4.62 7.66,-4.36 15.33,-4.10 20.64,-3.51 25.95,-2.93 29.63,-2.75 33.30,-2.57 35.64,-2.66 37.97,-2.76 40.83,-3.01 43.70,-3.25 46.46,-3.29 49.22,-3.33 51.94,-3.37 54.65,-3.42 57.67,-3.62 60.69,-3.81 64.14,-3.39 67.58,-2.96 72.23,-2.85 76.87,-2.74 79.31,-2.74 81.74,-2.75 85.07,-2.62 88.40,-2.49 90.97,-2.51 93.53,-2.52 97.33,-2.66 101.13,-2.79 105.47,-2.85 109.82,-2.91 111.98,-2.94 114.14,-2.96 119.38,-2.87 124.63,-2.78 127.51,-2.74 130.40,-2.69 133.92,-2.53 137.45,-2.37 139.71,-2.43 141.98,-2.49 144.83,-2.65 147.68,-2.81 150.21,-2.95 152.75,-3.09 155.94,-3.18 159.13,-3.28 162.05,-3.35 164.97,-3.43 167.53,-3.51 170.08,-3.59 173.05,-3.70 176.03,-3.80 181.76,-2.16 187.49,-0.53 188.09,0.35 188.69,1.24 188.97,2.28 189.25,3.31 189.19,4.38 189.12,5.45 188.72,6.44 188.32,7.44 187.62,8.25 186.92,9.06 186.00,9.61 185.08,10.16 184.03,10.39 182.99,10.61 181.92,10.49 180.86,10.37 179.89,9.91 178.92,9.46 178.14,8.72 177.37,7.98 176.87,7.03 176.37,6.08 176.21,5.02 176.04,3.96 176.22,2.90 176.40,1.85 176.90,0.90 177.41,-0.03 178.19,-0.76 178.97,-1.50 179.95,-1.94 180.92,-2.39 181.99,-2.50 183.05,-2.61 184.10,-2.37 185.15,-2.13 186.06,-1.58 186.98,-1.02 187.67,-0.20 188.35,0.61 188.75,1.61 189.14,2.61 189.19,3.68 189.24,4.75 188.95,5.78 188.66,6.81 188.05,7.69 187.45,8.58 186.59,9.22 185.73,9.86 184.72,10.20 183.70,10.54 182.63,10.53 181.56,10.52 180.54,10.18 179.53,9.83 178.68,9.18 177.83,8.52 177.83,8.52 177.83,8.53 176.93,8.83 176.03,9.13 173.05,9.03 170.08,8.93 167.53,8.85 164.97,8.77 162.05,8.69 159.13,8.61 155.94,8.51 152.75,8.42 150.21,8.28 147.68,8.14 144.83,7.98 141.98,7.82 139.71,7.76 137.45,7.70 133.92,7.86 130.40,8.02 127.51,8.07 124.63,8.12 119.38,8.21 114.14,8.30 111.98,8.27 109.82,8.24 105.47,8.18 101.13,8.12 97.33,7.99 93.53,7.85 90.95,7.83 88.38,7.81 85.03,7.92 81.69,8.04 79.23,8.01 76.77,7.99 71.80,7.90 66.83,7.81 63.63,7.14 60.43,6.48 57.54,6.28 54.64,6.08 51.93,6.03 49.21,5.98 46.40,5.93 43.60,5.88 40.67,5.55 37.73,5.22 35.36,4.99 32.98,4.75 29.19,4.61 25.40,4.46 20.37,4.28 15.33,4.10 7.66,4.36 0,4.62 -0.55,4.56 -1.10,4.49 -1.62,4.29 -2.15,4.09 -2.61,3.78 -3.06,3.46 -3.43,3.04 -3.80,2.62 -4.06,2.13 -4.32,1.64 -4.46,1.09 -4.59,0.55 -4.59,-0.00 -4.59,-0.55 -4.46,-1.09 -4.32,-1.64 -4.06,-2.13 -3.80,-2.62 -3.43,-3.04 -3.06,-3.46 -2.60,-3.78 -2.15,-4.09 -1.62,-4.29 -1.10,-4.49 -0.55,-4.56 0.00,-4.62 0.00,-4.62 L 0,-4.62 Z"></path></g><g transform="translate(660.6666564941406 547.0009394152472) rotate(0 0.00004999999998744897 0.00004999999998744897)" stroke="none"><path fill="#1971c2" d="M 3.14,-3.14 Q 3.14,-3.14 3.55,-2.55 3.97,-1.97 4.18,-1.28 4.40,-0.59 4.38,0.11 4.36,0.83 4.11,1.51 3.86,2.18 3.41,2.74 2.96,3.30 2.36,3.69 1.75,4.08 1.05,4.25 0.36,4.42 -0.35,4.36 -1.07,4.31 -1.73,4.02 -2.39,3.74 -2.92,3.26 -3.46,2.78 -3.81,2.15 -4.16,1.53 -4.30,0.82 -4.43,0.11 -4.34,-0.59 -4.24,-1.30 -3.92,-1.94 -3.60,-2.59 -3.09,-3.09 -2.59,-3.60 -1.94,-3.92 -1.30,-4.24 -0.59,-4.34 0.12,-4.43 0.82,-4.30 1.53,-4.16 2.15,-3.81 2.78,-3.46 3.26,-2.92 3.74,-2.39 4.02,-1.73 4.31,-1.07 4.36,-0.35 4.42,0.36 4.25,1.05 4.07,1.75 3.69,2.36 3.30,2.96 2.74,3.41 2.18,3.86 1.51,4.11 0.83,4.36 0.11,4.38 -0.60,4.40 -1.28,4.18 -1.97,3.97 -2.55,3.55 -3.14,3.13 -3.14,3.14 -3.14,3.14 -3.47,2.71 -3.80,2.29 -4.02,1.80 -4.24,1.32 -4.33,0.79 -4.43,0.26 -4.40,-0.26 -4.36,-0.80 -4.20,-1.31 -4.04,-1.82 -3.77,-2.28 -3.49,-2.73 -3.11,-3.11 -2.73,-3.49 -2.28,-3.77 -1.82,-4.05 -1.31,-4.20 -0.80,-4.36 -0.26,-4.40 0.26,-4.43 0.79,-4.33 1.32,-4.24 1.80,-4.02 2.29,-3.80 2.71,-3.47 3.14,-3.14 3.14,-3.14 L 3.14,-3.14 Z"></path></g><g transform="translate(315.3334045410155 548.3343032661587) rotate(0 -152.66670227050776 -149.33334350585935)" stroke="none"><path fill="#1971c2" d="M 0,3.86 Q 0,3.86 -2.30,4.01 -4.60,4.16 -8.23,4.44 -11.87,4.71 -14.20,4.79 -16.54,4.87 -20.11,4.40 -23.67,3.94 -32.03,2.34 -40.38,0.74 -49.75,-1.57 -59.11,-3.89 -68.08,-6.48 -77.04,-9.07 -85.88,-12.15 -94.72,-15.24 -108.03,-20.03 -121.34,-24.81 -132.30,-28.39 -143.26,-31.97 -152.64,-35.85 -162.02,-39.73 -172.84,-44.05 -183.66,-48.37 -193.28,-52.54 -202.90,-56.70 -212.20,-59.57 -221.50,-62.44 -227.82,-64.46 -234.14,-66.47 -239.64,-68.92 -245.15,-71.36 -248.13,-72.15 -251.12,-72.94 -254.12,-74.03 -257.13,-75.12 -260.69,-76.82 -264.25,-78.51 -267.05,-79.91 -269.85,-81.31 -272.62,-82.11 -275.39,-82.92 -278.31,-84.61 -281.23,-86.29 -283.31,-87.15 -285.40,-88.01 -287.81,-90.43 -290.21,-92.84 -291.94,-95.45 -293.67,-98.06 -295.42,-101.04 -297.16,-104.02 -298.71,-106.35 -300.25,-108.67 -301.92,-110.60 -303.60,-112.53 -304.78,-114.68 -305.97,-116.82 -307.81,-120.53 -309.65,-124.23 -309.91,-127.75 -310.16,-131.27 -309.93,-135.73 -309.70,-140.18 -309.49,-145.11 -309.28,-150.05 -309.17,-154.06 -309.07,-158.07 -308.92,-162.45 -308.78,-166.84 -308.95,-169.48 -309.12,-172.11 -308.84,-175.05 -308.57,-177.99 -308.09,-180.54 -307.61,-183.09 -306.39,-185.25 -305.17,-187.40 -302.15,-191.09 -299.12,-194.79 -297.90,-197.26 -296.68,-199.73 -292.78,-204.84 -288.87,-209.94 -287.02,-213.83 -285.16,-217.72 -283.48,-221.44 -281.79,-225.16 -280.86,-227.64 -279.93,-230.12 -276.47,-234.44 -273.01,-238.76 -268.05,-241.30 -263.09,-243.84 -257.59,-246.31 -252.09,-248.77 -246.11,-250.59 -240.14,-252.41 -235.81,-253.87 -231.48,-255.32 -225.63,-256.72 -219.79,-258.13 -215.53,-259.43 -211.27,-260.73 -206.89,-261.34 -202.51,-261.96 -200.36,-262.45 -198.21,-262.94 -195.33,-263.46 -192.45,-263.97 -189.86,-264.27 -187.26,-264.58 -183.71,-265.70 -180.16,-266.82 -177.81,-267.21 -175.47,-267.61 -172.40,-268.21 -169.32,-268.80 -166.46,-270.38 -163.59,-271.96 -161.89,-273.40 -160.20,-274.85 -157.14,-276.78 -154.08,-278.72 -151.30,-280.07 -148.52,-281.43 -146.83,-282.90 -145.14,-284.37 -142.75,-286.13 -140.37,-287.88 -136.81,-290.77 -133.24,-293.65 -131.15,-294.99 -129.06,-296.33 -126.05,-297.63 -123.05,-298.93 -121.13,-299.97 -119.20,-301.01 -115.28,-302.11 -111.36,-303.21 -108.56,-303.47 -105.77,-303.74 -103.41,-303.86 -101.05,-303.98 -98.44,-303.99 -95.83,-304.00 -92.84,-304.67 -89.85,-305.34 -87.22,-305.42 -84.59,-305.49 -81.39,-305.53 -78.19,-305.57 -74.42,-305.59 -70.66,-305.60 -69.55,-305.42 -68.45,-305.24 -67.45,-304.71 -66.46,-304.19 -65.69,-303.37 -64.92,-302.56 -64.45,-301.54 -63.97,-300.52 -63.85,-299.40 -63.73,-298.29 -63.97,-297.19 -64.21,-296.09 -64.79,-295.13 -65.37,-294.17 -66.23,-293.44 -67.08,-292.71 -68.13,-292.30 -69.17,-291.88 -70.29,-291.82 -71.41,-291.76 -72.49,-292.06 -73.58,-292.36 -74.51,-292.99 -75.43,-293.62 -76.11,-294.52 -76.79,-295.41 -77.15,-296.48 -77.51,-297.54 -77.51,-298.66 -77.51,-299.78 -77.15,-300.85 -76.79,-301.91 -76.11,-302.81 -75.43,-303.70 -74.50,-304.33 -73.58,-304.96 -72.49,-305.26 -71.41,-305.56 -70.29,-305.50 -69.17,-305.44 -68.13,-305.02 -67.08,-304.61 -66.23,-303.88 -65.37,-303.15 -64.79,-302.19 -64.21,-301.23 -63.97,-300.13 -63.73,-299.04 -63.85,-297.92 -63.97,-296.80 -64.45,-295.78 -64.92,-294.77 -65.69,-293.95 -66.46,-293.14 -67.45,-292.61 -68.45,-292.08 -69.55,-291.90 -70.66,-291.72 -70.66,-291.72 -70.66,-291.72 -73.02,-291.74 -75.39,-291.75 -78.25,-291.75 -81.12,-291.74 -83.99,-291.76 -86.85,-291.79 -89.08,-291.77 -91.31,-291.75 -93.44,-291.20 -95.56,-290.66 -98.94,-290.68 -102.32,-290.71 -104.61,-290.73 -106.90,-290.75 -109.04,-290.59 -111.18,-290.42 -113.82,-289.51 -116.46,-288.61 -119.41,-287.43 -122.36,-286.26 -125.93,-283.83 -129.50,-281.41 -131.54,-279.32 -133.58,-277.22 -135.41,-275.48 -137.25,-273.74 -140.83,-271.74 -144.40,-269.74 -146.45,-269.11 -148.50,-268.47 -150.74,-267.38 -152.98,-266.29 -157.33,-263.24 -161.68,-260.19 -164.20,-259.06 -166.72,-257.93 -170.45,-257.48 -174.19,-257.03 -177.63,-256.46 -181.07,-255.89 -184.14,-255.64 -187.21,-255.39 -189.66,-255.64 -192.12,-255.89 -194.78,-256.10 -197.45,-256.31 -199.58,-256.31 -201.72,-256.30 -205.62,-255.75 -209.53,-255.20 -213.93,-253.75 -218.33,-252.31 -223.84,-250.86 -229.36,-249.41 -233.72,-247.74 -238.08,-246.08 -243.53,-244.19 -248.98,-242.30 -254.13,-239.62 -259.28,-236.94 -263.15,-234.61 -267.02,-232.28 -269.75,-229.56 -272.48,-226.85 -273.63,-224.57 -274.77,-222.29 -276.19,-218.43 -277.60,-214.57 -279.42,-209.64 -281.25,-204.72 -284.19,-199.91 -287.14,-195.09 -288.33,-192.94 -289.51,-190.78 -292.33,-188.07 -295.15,-185.36 -296.46,-183.64 -297.77,-181.93 -299.16,-179.38 -300.55,-176.83 -301.04,-174.47 -301.53,-172.11 -301.70,-169.48 -301.86,-166.85 -301.70,-162.47 -301.54,-158.09 -301.41,-154.10 -301.28,-150.11 -300.99,-145.23 -300.71,-140.35 -300.31,-136.15 -299.91,-131.96 -299.64,-128.51 -299.36,-125.07 -297.88,-121.73 -296.41,-118.38 -294.49,-115.98 -292.57,-113.57 -291.06,-111.11 -289.56,-108.65 -287.74,-105.78 -285.93,-102.91 -283.69,-99.22 -281.46,-95.53 -279.17,-94.28 -276.88,-93.03 -274.91,-91.56 -272.95,-90.09 -269.64,-88.88 -266.34,-87.66 -263.86,-86.12 -261.38,-84.57 -257.94,-82.95 -254.50,-81.33 -251.85,-80.03 -249.19,-78.72 -246.09,-77.49 -242.98,-76.25 -237.75,-73.93 -232.51,-71.60 -226.21,-69.62 -219.90,-67.63 -210.32,-64.69 -200.73,-61.75 -191.16,-57.66 -181.60,-53.57 -170.72,-49.30 -159.85,-45.02 -150.66,-41.30 -141.46,-37.58 -130.38,-34.09 -119.29,-30.61 -105.97,-25.99 -92.66,-21.38 -83.94,-18.57 -75.23,-15.76 -66.34,-13.50 -57.45,-11.25 -48.26,-9.39 -39.07,-7.52 -30.82,-6.50 -22.58,-5.47 -19.56,-5.17 -16.54,-4.87 -14.20,-4.79 -11.87,-4.71 -8.23,-4.44 -4.60,-4.16 -2.30,-4.01 0,-3.86 0.46,-3.80 0.92,-3.74 1.35,-3.58 1.79,-3.41 2.17,-3.15 2.56,-2.89 2.86,-2.54 3.17,-2.19 3.39,-1.78 3.61,-1.36 3.72,-0.91 3.83,-0.46 3.83,0.00 3.83,0.46 3.72,0.91 3.61,1.36 3.39,1.78 3.17,2.19 2.86,2.54 2.56,2.89 2.17,3.15 1.79,3.41 1.35,3.58 0.92,3.74 0.46,3.80 -0.00,3.86 -0.00,3.86 L 0,3.86 Z"></path></g><g transform="translate(223.33333333333326 233.66760608191396) rotate(0 11.999994913736998 20)" stroke="none"><path fill="#1971c2" d="M 1.82,-4.56 Q 1.82,-4.56 5.56,-2.78 9.29,-1.01 12.05,-0.02 14.81,0.96 17.63,2.74 20.45,4.53 23.95,6.34 27.46,8.14 28.35,10.62 29.25,13.10 29.50,15.91 29.76,18.73 29.91,21.41 30.07,24.08 29.13,27.55 28.19,31.01 27.08,32.99 25.97,34.98 25.27,37.61 24.57,40.25 22.89,41.60 21.20,42.95 21.71,42.84 22.22,42.74 21.62,43.66 21.02,44.58 20.15,45.26 19.29,45.94 18.25,46.31 17.22,46.68 16.12,46.70 15.02,46.72 13.97,46.39 12.92,46.06 12.03,45.41 11.14,44.76 10.51,43.86 9.88,42.96 9.56,41.91 9.25,40.85 9.29,39.75 9.33,38.65 9.72,37.63 10.11,36.60 10.80,35.74 11.50,34.89 12.43,34.31 13.36,33.73 14.43,33.47 15.50,33.21 16.60,33.31 17.69,33.41 18.70,33.86 19.71,34.30 20.52,35.04 21.33,35.78 21.87,36.75 22.40,37.71 22.60,38.79 22.79,39.87 22.64,40.96 22.48,42.05 21.98,43.03 21.48,44.01 20.70,44.78 19.91,45.55 18.92,46.03 17.93,46.51 16.84,46.65 15.75,46.79 14.67,46.57 13.59,46.36 12.64,45.81 11.69,45.26 10.96,44.43 10.23,43.60 9.81,42.59 9.38,41.58 9.30,40.48 9.22,39.38 9.50,38.32 9.77,37.25 9.77,37.25 9.77,37.25 11.98,33.72 14.19,30.18 16.05,27.13 17.92,24.09 18.07,21.45 18.22,18.81 19.46,16.78 20.71,14.75 18.01,13.42 15.31,12.09 13.47,10.70 11.63,9.31 8.83,8.22 6.03,7.14 2.10,5.85 -1.82,4.56 -2.34,4.27 -2.86,3.99 -3.30,3.59 -3.73,3.19 -4.06,2.69 -4.39,2.20 -4.59,1.64 -4.79,1.08 -4.85,0.50 -4.91,-0.08 -4.83,-0.67 -4.74,-1.26 -4.52,-1.81 -4.30,-2.36 -3.96,-2.84 -3.61,-3.32 -3.16,-3.70 -2.71,-4.09 -2.18,-4.36 -1.65,-4.62 -1.08,-4.75 -0.50,-4.88 0.08,-4.87 0.68,-4.86 1.25,-4.71 1.82,-4.56 1.82,-4.56 L 1.82,-4.56 Z"></path></g><g transform="translate(368.6667378743489 263.00094958777333) rotate(0 73.999989827474 0.6666819254557197)" stroke="none"><path fill="#1971c2" d="M 0,-5.29 Q 0,-5.29 2.67,-5.28 5.35,-5.28 9.13,-5.92 12.91,-6.56 15.86,-6.80 18.82,-7.03 21.16,-7.16 23.49,-7.30 25.94,-7.38 28.39,-7.47 30.80,-7.55 33.20,-7.62 35.82,-7.68 38.44,-7.74 40.94,-7.79 43.43,-7.84 45.91,-7.88 48.38,-7.92 51.74,-7.97 55.11,-8.03 57.88,-8.05 60.65,-8.06 63.89,-8.10 67.13,-8.14 69.34,-8.17 71.56,-8.20 73.98,-8.21 76.40,-8.22 78.80,-8.23 81.20,-8.25 84.43,-8.21 87.65,-8.16 90.36,-8.17 93.07,-8.17 95.74,-8.18 98.42,-8.19 100.69,-8.24 102.96,-8.29 105.53,-8.33 108.10,-8.37 110.59,-8.40 113.09,-8.43 116.56,-7.78 120.03,-7.13 122.20,-7.14 124.37,-7.15 126.90,-7.15 129.44,-7.16 132.73,-7.10 136.02,-7.05 138.96,-7.03 141.90,-7.01 145.73,-6.08 149.56,-5.15 151.81,-3.04 154.07,-0.92 154.48,0.13 154.90,1.19 154.95,2.33 155.00,3.47 154.69,4.57 154.38,5.67 153.73,6.61 153.08,7.55 152.17,8.23 151.26,8.92 150.17,9.28 149.09,9.63 147.95,9.62 146.80,9.62 145.72,9.24 144.65,8.87 143.74,8.17 142.84,7.48 142.20,6.53 141.57,5.58 141.27,4.48 140.98,3.37 141.05,2.23 141.12,1.10 141.55,0.04 141.98,-1.01 142.72,-1.87 143.47,-2.74 144.45,-3.32 145.43,-3.90 146.55,-4.14 147.66,-4.38 148.80,-4.24 149.93,-4.11 150.96,-3.63 152.00,-3.14 152.82,-2.35 153.64,-1.56 154.17,-0.54 154.70,0.46 154.87,1.59 155.05,2.71 154.86,3.84 154.66,4.96 154.12,5.97 153.58,6.97 152.75,7.75 151.91,8.53 150.87,9.00 149.83,9.47 148.70,9.59 147.56,9.70 146.45,9.45 145.34,9.20 144.36,8.60 143.39,8.01 142.66,7.13 141.92,6.25 141.92,6.26 141.92,6.26 142.96,6.53 144.00,6.81 141.54,6.91 139.07,7.02 135.75,7.07 132.43,7.12 128.94,7.12 125.46,7.11 122.55,6.95 119.65,6.79 116.37,6.28 113.09,5.76 110.59,5.73 108.10,5.70 105.53,5.66 102.96,5.62 100.69,5.57 98.42,5.52 95.74,5.51 93.07,5.51 90.36,5.50 87.65,5.50 84.43,5.54 81.20,5.58 78.80,5.57 76.40,5.55 73.98,5.54 71.56,5.53 69.34,5.51 67.13,5.48 63.89,5.44 60.65,5.40 57.88,5.38 55.11,5.36 51.74,5.31 48.38,5.25 45.91,5.21 43.43,5.18 40.94,5.12 38.44,5.07 35.82,5.01 33.20,4.96 30.80,4.88 28.40,4.81 24.77,4.68 21.14,4.55 18.58,4.47 16.02,4.39 13.42,4.45 10.83,4.51 8.10,4.89 5.37,5.28 2.68,5.28 0,5.29 -0.63,5.21 -1.26,5.14 -1.86,4.91 -2.46,4.69 -2.98,4.32 -3.51,3.96 -3.93,3.48 -4.35,3.00 -4.65,2.44 -4.95,1.87 -5.10,1.25 -5.25,0.63 -5.25,-0.00 -5.25,-0.63 -5.10,-1.25 -4.95,-1.87 -4.65,-2.44 -4.35,-3.00 -3.93,-3.48 -3.51,-3.96 -2.98,-4.32 -2.46,-4.69 -1.86,-4.91 -1.26,-5.14 -0.63,-5.21 0.00,-5.29 0.00,-5.29 L 0,-5.29 Z"></path></g><g transform="translate(364.66669718424475 872.3343439562628) rotate(0 160.66665649414057 0)" stroke="none"><path fill="#1971c2" d="M 0,-4.47 Q 0,-4.47 4.21,-4.23 8.43,-4.00 13.29,-3.82 18.15,-3.63 22.51,-3.50 26.88,-3.36 30.26,-3.44 33.65,-3.53 36.24,-3.69 38.83,-3.85 41.85,-3.94 44.87,-4.02 48.55,-4.31 52.24,-4.60 54.47,-4.70 56.70,-4.79 61.22,-4.93 65.74,-5.08 68.31,-5.10 70.87,-5.13 73.11,-5.18 75.35,-5.24 79.72,-5.30 84.08,-5.37 86.36,-5.40 88.63,-5.44 93.02,-5.48 97.41,-5.51 99.68,-5.54 101.96,-5.56 105.23,-5.43 108.50,-5.31 110.65,-5.35 112.81,-5.40 115.26,-5.41 117.71,-5.43 120.67,-5.37 123.62,-5.31 126.41,-5.29 129.20,-5.26 131.54,-5.30 133.88,-5.34 137.17,-5.23 140.46,-5.12 143.01,-5.14 145.56,-5.17 148.18,-5.18 150.79,-5.19 153.06,-5.24 155.32,-5.29 158.38,-5.43 161.45,-5.58 165.12,-5.66 168.79,-5.74 171.24,-5.73 173.70,-5.71 175.89,-5.73 178.09,-5.74 180.93,-5.67 183.78,-5.60 186.53,-5.56 189.27,-5.52 191.97,-5.49 194.67,-5.46 197.35,-5.44 200.03,-5.42 202.32,-5.45 204.61,-5.48 207.86,-5.60 211.10,-5.73 213.28,-5.74 215.45,-5.76 219.17,-5.82 222.89,-5.89 225.51,-5.84 228.13,-5.80 231.95,-5.85 235.78,-5.91 239.37,-5.97 242.95,-6.03 247.10,-6.03 251.24,-6.02 253.38,-6.02 255.51,-6.02 258.66,-6.09 261.81,-6.16 264.18,-6.23 266.55,-6.31 269.55,-6.35 272.55,-6.40 274.73,-6.46 276.91,-6.52 280.41,-6.51 283.92,-6.51 287.83,-6.47 291.74,-6.44 294.80,-6.47 297.85,-6.50 300.75,-6.52 303.65,-6.55 306.04,-6.59 308.42,-6.62 311.00,-6.69 313.58,-6.76 317.45,-6.82 321.33,-6.88 322.43,-6.70 323.53,-6.52 324.51,-6.00 325.49,-5.47 326.26,-4.67 327.03,-3.86 327.49,-2.85 327.96,-1.84 328.08,-0.73 328.20,0.37 327.96,1.46 327.72,2.54 327.15,3.50 326.57,4.45 325.73,5.17 324.88,5.89 323.84,6.31 322.81,6.72 321.70,6.78 320.58,6.84 319.51,6.54 318.44,6.24 317.52,5.62 316.59,4.99 315.92,4.11 315.25,3.22 314.89,2.16 314.54,1.11 314.54,-0.00 314.54,-1.11 314.89,-2.16 315.25,-3.22 315.92,-4.11 316.60,-4.99 317.52,-5.62 318.44,-6.24 319.51,-6.54 320.59,-6.84 321.70,-6.78 322.81,-6.72 323.84,-6.30 324.88,-5.89 325.73,-5.17 326.58,-4.45 327.15,-3.50 327.72,-2.54 327.96,-1.45 328.20,-0.37 328.08,0.73 327.96,1.84 327.49,2.85 327.02,3.86 326.26,4.67 325.49,5.48 324.51,6.00 323.52,6.52 322.43,6.70 321.33,6.88 321.33,6.88 321.33,6.88 317.45,6.82 313.58,6.76 311.00,6.69 308.42,6.62 306.04,6.59 303.65,6.55 300.75,6.52 297.85,6.50 294.80,6.47 291.74,6.44 287.83,6.47 283.92,6.51 280.41,6.51 276.91,6.52 274.73,6.46 272.55,6.40 269.55,6.35 266.55,6.31 264.18,6.23 261.81,6.16 258.66,6.09 255.51,6.02 253.38,6.02 251.24,6.02 247.10,6.03 242.95,6.03 239.37,5.97 235.78,5.91 231.95,5.85 228.13,5.80 225.51,5.84 222.89,5.89 219.17,5.82 215.45,5.76 213.28,5.74 211.10,5.73 207.86,5.60 204.61,5.48 202.32,5.45 200.03,5.42 197.35,5.44 194.67,5.46 191.97,5.49 189.27,5.52 186.53,5.56 183.78,5.60 180.93,5.67 178.09,5.74 175.89,5.73 173.70,5.71 171.24,5.73 168.79,5.74 165.12,5.66 161.45,5.58 158.38,5.43 155.32,5.29 153.06,5.24 150.79,5.19 148.18,5.18 145.56,5.17 143.01,5.14 140.46,5.12 137.17,5.23 133.88,5.34 131.54,5.30 129.20,5.26 126.41,5.29 123.62,5.31 120.67,5.37 117.71,5.43 115.26,5.41 112.81,5.40 110.65,5.35 108.50,5.31 105.23,5.43 101.96,5.56 99.68,5.54 97.41,5.51 93.02,5.48 88.63,5.44 86.36,5.40 84.08,5.37 79.72,5.30 75.35,5.24 73.11,5.18 70.87,5.13 68.31,5.10 65.74,5.08 61.22,4.93 56.70,4.79 54.47,4.70 52.24,4.60 48.55,4.31 44.87,4.02 41.85,3.94 38.83,3.85 36.24,3.69 33.65,3.53 30.26,3.44 26.88,3.36 22.51,3.50 18.15,3.63 13.29,3.82 8.43,4.00 4.21,4.23 0,4.47 -0.53,4.40 -1.07,4.34 -1.57,4.15 -2.07,3.96 -2.52,3.65 -2.96,3.34 -3.32,2.94 -3.68,2.54 -3.93,2.06 -4.18,1.58 -4.31,1.06 -4.44,0.53 -4.44,-0.00 -4.44,-0.53 -4.31,-1.06 -4.18,-1.58 -3.93,-2.06 -3.68,-2.54 -3.32,-2.94 -2.96,-3.34 -2.52,-3.65 -2.07,-3.96 -1.57,-4.15 -1.07,-4.34 -0.53,-4.40 0.00,-4.47 0.00,-4.47 L 0,-4.47 Z"></path></g><g stroke-linecap="round" transform="translate(1373.600107828776 414.66764168575514) rotate(0 26.79998779296875 24.79998016357422)"><path d="M28.97 -0.54 C34.41 -0.68, 41.03 2.47, 44.94 6.14 C48.85 9.82, 51.82 16.03, 52.42 21.51 C53.02 26.99, 51.43 34.45, 48.52 39.03 C45.6 43.62, 40.26 47.74, 34.93 49.01 C29.61 50.29, 21.75 48.69, 16.55 46.68 C11.36 44.67, 6.53 41.61, 3.75 36.96 C0.97 32.3, -1.14 24.08, -0.14 18.73 C0.87 13.37, 4.43 7.76, 9.78 4.84 C15.14 1.92, 27.95 1.78, 32 1.22 C36.04 0.67, 34.26 1.28, 34.03 1.51 M31.04 -0.79 C36.44 -0.54, 42.67 2.4, 46.22 6.65 C49.76 10.89, 52.12 19.07, 52.3 24.68 C52.47 30.29, 50.65 36.27, 47.25 40.32 C43.84 44.38, 37.19 47.66, 31.88 48.99 C26.57 50.32, 20.58 50.91, 15.39 48.29 C10.19 45.68, 2.89 38.63, 0.73 33.29 C-1.44 27.95, 0.6 20.94, 2.37 16.26 C4.15 11.58, 6.95 8.01, 11.36 5.21 C15.78 2.4, 25.92 0.38, 28.86 -0.58 C31.8 -1.54, 28.71 -1.17, 29.01 -0.56" stroke="#1971c2" stroke-width="2" fill="none"></path></g><g transform="translate(1394.5902675176198 427.4313877023742) rotate(0 5.859375 12)"><text x="5.859375" y="0" font-family="Cascadia, Segoe UI Emoji" font-size="20px" fill="#1971c2" text-anchor="middle" style="white-space: pre;" direction="ltr" dominant-baseline="text-before-edge">1</text></g><g stroke-linecap="round" transform="translate(519.4000345865884 536.0676889880012) rotate(0 26.79998779296875 24.79998016357422)"><path d="M27.2 -0.97 C32.78 -1.21, 39.55 2.38, 43.94 5.84 C48.33 9.31, 52.57 14.62, 53.56 19.82 C54.56 25.02, 52.74 32.27, 49.91 37.04 C47.08 41.81, 42.11 46.46, 36.58 48.44 C31.05 50.43, 22.08 50.8, 16.73 48.96 C11.39 47.11, 7.38 42.23, 4.5 37.39 C1.62 32.55, -1.47 25.29, -0.55 19.91 C0.38 14.54, 4.72 8.41, 10.07 5.15 C15.41 1.88, 27.42 0.88, 31.54 0.32 C35.67 -0.23, 34.84 1.58, 34.81 1.81 M36.95 1.13 C42.19 2.81, 48.16 9.24, 50.84 14.13 C53.51 19.02, 54.62 25.43, 52.98 30.45 C51.33 35.47, 45.46 41.07, 40.94 44.24 C36.43 47.42, 31.3 49.57, 25.9 49.51 C20.5 49.46, 12.61 47.58, 8.55 43.91 C4.49 40.23, 2.29 32.98, 1.53 27.47 C0.78 21.96, 0.91 15.31, 4.03 10.84 C7.15 6.37, 14.47 2, 20.27 0.64 C26.06 -0.72, 36.06 2.27, 38.8 2.65 C41.54 3.04, 37.11 2.45, 36.71 2.95" stroke="#1971c2" stroke-width="2" fill="none"></path></g><g transform="translate(540.3901942754322 548.8314350046203) rotate(0 5.859375 12)"><text x="5.859375" y="0" font-family="Cascadia, Segoe UI Emoji" font-size="20px" fill="#1971c2" text-anchor="middle" style="white-space: pre;" direction="ltr" dominant-baseline="text-before-edge">2</text></g><g stroke-linecap="round" transform="translate(529.5650728555556 219.6644563121955) rotate(0 26.79998779296875 24.79998016357422)"><path d="M34.02 0.55 C39.35 1.57, 44.78 6.47, 47.96 10.86 C51.14 15.25, 53.52 21.62, 53.11 26.9 C52.71 32.18, 49.49 38.67, 45.54 42.53 C41.58 46.39, 35.19 49.8, 29.39 50.07 C23.59 50.35, 15.4 47.21, 10.74 44.17 C6.08 41.13, 2.78 36.87, 1.45 31.86 C0.13 26.85, 0.6 18.87, 2.79 14.11 C4.98 9.35, 8.8 5.4, 14.59 3.28 C20.39 1.16, 32.87 1.11, 37.55 1.39 C42.24 1.67, 42.83 4.53, 42.71 4.96 M40.37 3.68 C45.26 5.38, 49.39 9.58, 51.31 14.22 C53.22 18.86, 53.39 26.32, 51.84 31.51 C50.3 36.7, 46.96 42.44, 42.02 45.37 C37.09 48.3, 28.15 49.7, 22.22 49.09 C16.3 48.47, 9.97 45.7, 6.5 41.67 C3.04 37.63, 1.47 30.18, 1.42 24.89 C1.38 19.6, 2.96 13.88, 6.24 9.9 C9.51 5.92, 15.46 2.09, 21.06 1.01 C26.65 -0.07, 36.89 3.18, 39.8 3.43 C42.72 3.68, 38.79 2.22, 38.54 2.5" stroke="#1971c2" stroke-width="2" fill="none"></path></g><g transform="translate(550.5552325443995 232.42820232881454) rotate(0 5.859375 12)"><text x="5.859375" y="0" font-family="Cascadia, Segoe UI Emoji" font-size="20px" fill="#1971c2" text-anchor="middle" style="white-space: pre;" direction="ltr" dominant-baseline="text-before-edge">3</text></g><g transform="translate(373.26119566671196 474.890764927634) rotate(0 0.00004999999998744897 0.00004999999998744897)" stroke="none"><path fill="#1e1e1e" d="M 3.14,-3.14 Q 3.14,-3.14 3.55,-2.55 3.97,-1.97 4.18,-1.28 4.40,-0.59 4.38,0.11 4.36,0.83 4.11,1.51 3.86,2.18 3.41,2.74 2.96,3.30 2.36,3.69 1.75,4.08 1.05,4.25 0.36,4.42 -0.35,4.36 -1.07,4.31 -1.73,4.02 -2.39,3.74 -2.92,3.26 -3.46,2.78 -3.81,2.15 -4.16,1.53 -4.30,0.82 -4.43,0.11 -4.34,-0.59 -4.24,-1.30 -3.92,-1.94 -3.60,-2.59 -3.09,-3.09 -2.59,-3.60 -1.94,-3.92 -1.30,-4.24 -0.59,-4.34 0.12,-4.43 0.82,-4.30 1.53,-4.16 2.15,-3.81 2.78,-3.46 3.26,-2.92 3.74,-2.39 4.02,-1.73 4.31,-1.07 4.36,-0.35 4.42,0.36 4.25,1.05 4.07,1.75 3.69,2.36 3.30,2.96 2.74,3.41 2.18,3.86 1.51,4.11 0.83,4.36 0.11,4.38 -0.60,4.40 -1.28,4.18 -1.97,3.97 -2.55,3.55 -3.14,3.13 -3.14,3.14 -3.14,3.14 -3.47,2.71 -3.80,2.29 -4.02,1.80 -4.24,1.32 -4.33,0.79 -4.43,0.26 -4.40,-0.26 -4.36,-0.80 -4.20,-1.31 -4.04,-1.82 -3.77,-2.28 -3.49,-2.73 -3.11,-3.11 -2.73,-3.49 -2.28,-3.77 -1.82,-4.05 -1.31,-4.20 -0.80,-4.36 -0.26,-4.40 0.26,-4.43 0.79,-4.33 1.32,-4.24 1.80,-4.02 2.29,-3.80 2.71,-3.47 3.14,-3.14 3.14,-3.14 L 3.14,-3.14 Z"></path></g><g transform="translate(1684.6807895937413 411.7941784308913) rotate(0 0.00004999999998744897 0.00004999999998744897)" stroke="none"><path fill="#1e1e1e" d="M 3.14,-3.14 Q 3.14,-3.14 3.55,-2.55 3.97,-1.97 4.18,-1.28 4.40,-0.59 4.38,0.11 4.36,0.83 4.11,1.51 3.86,2.18 3.41,2.74 2.96,3.30 2.36,3.69 1.75,4.08 1.05,4.25 0.36,4.42 -0.35,4.36 -1.07,4.31 -1.73,4.02 -2.39,3.74 -2.92,3.26 -3.46,2.78 -3.81,2.15 -4.16,1.53 -4.30,0.82 -4.43,0.11 -4.34,-0.59 -4.24,-1.30 -3.92,-1.94 -3.60,-2.59 -3.09,-3.09 -2.59,-3.60 -1.94,-3.92 -1.30,-4.24 -0.59,-4.34 0.12,-4.43 0.82,-4.30 1.53,-4.16 2.15,-3.81 2.78,-3.46 3.26,-2.92 3.74,-2.39 4.02,-1.73 4.31,-1.07 4.36,-0.35 4.42,0.36 4.25,1.05 4.07,1.75 3.69,2.36 3.30,2.96 2.74,3.41 2.18,3.86 1.51,4.11 0.83,4.36 0.11,4.38 -0.60,4.40 -1.28,4.18 -1.97,3.97 -2.55,3.55 -3.14,3.13 -3.14,3.14 -3.14,3.14 -3.47,2.71 -3.80,2.29 -4.02,1.80 -4.24,1.32 -4.33,0.79 -4.43,0.26 -4.40,-0.26 -4.36,-0.80 -4.20,-1.31 -4.04,-1.82 -3.77,-2.28 -3.49,-2.73 -3.11,-3.11 -2.73,-3.49 -2.28,-3.77 -1.82,-4.05 -1.31,-4.20 -0.80,-4.36 -0.26,-4.40 0.26,-4.43 0.79,-4.33 1.32,-4.24 1.80,-4.02 2.29,-3.80 2.71,-3.47 3.14,-3.14 3.14,-3.14 L 3.14,-3.14 Z"></path></g><g transform="translate(689.9814391980804 872.0282034082874) rotate(0 61.859417034057515 2.4743861203602364)" stroke="none"><path fill="#1971c2" d="M 0,-5.25 Q 0,-5.25 2.13,-5.30 4.26,-5.36 6.93,-5.50 9.59,-5.64 12.09,-5.80 14.59,-5.96 16.74,-6.09 18.88,-6.21 21.00,-5.78 23.12,-5.36 25.49,-4.75 27.86,-4.15 30.13,-3.57 32.40,-2.99 34.69,-2.98 36.98,-2.96 40.21,-2.37 43.45,-1.78 45.96,-1.86 48.47,-1.94 51.08,-1.96 53.69,-1.99 56.90,-2.02 60.11,-2.05 62.55,-2.05 64.99,-2.06 67.31,-2.06 69.62,-2.07 72.22,-2.07 74.82,-2.07 77.16,-2.07 79.51,-2.07 82.62,-2.04 85.73,-2.01 88.32,-2.02 90.90,-2.02 93.56,-2.06 96.22,-2.09 99.28,-2.12 102.34,-2.14 104.71,-2.14 107.08,-2.14 109.91,-2.16 112.74,-2.18 115.06,-2.18 117.37,-2.18 120.54,-2.19 123.71,-2.21 124.86,-2.02 126.00,-1.83 127.03,-1.29 128.05,-0.75 128.85,0.08 129.64,0.92 130.13,1.98 130.62,3.03 130.74,4.18 130.87,5.33 130.62,6.46 130.37,7.60 129.77,8.59 129.17,9.58 128.29,10.33 127.41,11.08 126.33,11.51 125.25,11.94 124.10,12.00 122.94,12.07 121.82,11.76 120.71,11.44 119.75,10.79 118.79,10.14 118.09,9.22 117.38,8.30 117.01,7.20 116.64,6.10 116.64,4.94 116.64,3.78 117.02,2.69 117.39,1.59 118.09,0.66 118.79,-0.25 119.75,-0.90 120.71,-1.55 121.82,-1.86 122.94,-2.17 124.10,-2.10 125.26,-2.04 126.33,-1.61 127.41,-1.18 128.29,-0.43 129.17,0.31 129.77,1.30 130.37,2.29 130.62,3.43 130.87,4.56 130.74,5.71 130.62,6.86 130.13,7.91 129.64,8.97 128.84,9.81 128.05,10.65 127.02,11.19 126.00,11.73 124.86,11.92 123.71,12.11 123.71,12.11 123.71,12.11 120.54,12.09 117.37,12.08 115.06,12.08 112.74,12.08 109.91,12.06 107.08,12.04 104.71,12.04 102.34,12.03 99.28,12.01 96.22,11.99 93.56,11.95 90.90,11.92 88.32,11.91 85.73,11.91 82.62,11.94 79.51,11.97 77.16,11.97 74.82,11.96 72.22,11.96 69.62,11.97 67.31,11.96 64.99,11.96 62.55,11.95 60.11,11.94 57.82,11.93 55.53,11.92 52.60,11.88 49.67,11.85 47.17,11.74 44.66,11.64 40.71,10.99 36.75,10.34 33.98,10.23 31.22,10.13 28.25,9.47 25.29,8.82 22.60,7.80 19.91,6.78 17.25,6.37 14.59,5.96 12.09,5.80 9.59,5.64 6.93,5.50 4.26,5.36 2.13,5.30 0,5.25 -0.62,5.17 -1.25,5.10 -1.84,4.87 -2.44,4.65 -2.96,4.29 -3.48,3.93 -3.90,3.45 -4.32,2.98 -4.61,2.42 -4.91,1.86 -5.06,1.24 -5.21,0.63 -5.21,-0.00 -5.21,-0.63 -5.06,-1.24 -4.91,-1.86 -4.61,-2.42 -4.32,-2.98 -3.90,-3.45 -3.48,-3.93 -2.96,-4.29 -2.44,-4.65 -1.84,-4.87 -1.25,-5.10 -0.62,-5.17 0.00,-5.25 0.00,-5.25 L 0,-5.25 Z"></path></g><g transform="translate(689.9814391980804 876.9769756490078) rotate(0 20.413579304245104 1.8558013890176426)" stroke="none"><path fill="#1971c2" d="M 1.11,-5.03 Q 1.11,-5.03 4.30,-4.23 7.48,-3.43 10.33,-3.23 13.19,-3.03 16.01,-2.10 18.83,-1.17 21.33,-1.81 23.84,-2.45 26.31,-2.58 28.77,-2.71 32.06,-2.79 35.35,-2.88 38.09,-2.92 40.82,-2.97 41.89,-2.80 42.96,-2.62 43.91,-2.11 44.87,-1.61 45.61,-0.82 46.36,-0.04 46.81,0.94 47.27,1.92 47.38,2.99 47.50,4.07 47.27,5.13 47.03,6.18 46.48,7.11 45.92,8.04 45.09,8.74 44.27,9.44 43.26,9.84 42.26,10.24 41.18,10.30 40.10,10.35 39.06,10.07 38.01,9.78 37.12,9.17 36.22,8.56 35.57,7.70 34.91,6.84 34.57,5.81 34.22,4.79 34.22,3.71 34.22,2.62 34.57,1.60 34.91,0.57 35.57,-0.28 36.22,-1.14 37.12,-1.75 38.02,-2.35 39.06,-2.64 40.10,-2.93 41.18,-2.87 42.26,-2.81 43.27,-2.41 44.27,-2.01 45.10,-1.31 45.92,-0.61 46.48,0.31 47.04,1.23 47.27,2.29 47.50,3.35 47.38,4.42 47.27,5.50 46.81,6.48 46.36,7.46 45.61,8.25 44.87,9.03 43.91,9.54 42.96,10.04 41.89,10.22 40.82,10.39 40.82,10.39 40.82,10.39 38.09,10.35 35.35,10.30 33.04,10.25 30.72,10.20 28.51,10.10 26.29,10.01 23.75,9.85 21.20,9.69 18.71,9.39 16.22,9.09 14.23,8.35 12.24,7.60 8.78,6.94 5.32,6.28 2.10,5.65 -1.11,5.03 -1.70,4.82 -2.29,4.61 -2.80,4.27 -3.32,3.93 -3.75,3.48 -4.17,3.02 -4.47,2.48 -4.77,1.93 -4.93,1.33 -5.10,0.73 -5.11,0.11 -5.13,-0.50 -4.99,-1.11 -4.86,-1.71 -4.58,-2.27 -4.30,-2.83 -3.90,-3.30 -3.50,-3.77 -3.00,-4.14 -2.49,-4.50 -1.92,-4.74 -1.34,-4.97 -0.73,-5.06 -0.11,-5.15 0.50,-5.09 1.11,-5.03 1.11,-5.03 L 1.11,-5.03 Z"></path></g><g stroke-linecap="round" transform="translate(826.7995905821979 843.8259364298442) rotate(0 26.79998779296875 24.79998016357422)"><path d="M26.86 -0.35 C32.31 -0.72, 38.77 1.55, 43.03 5.15 C47.3 8.74, 51.35 15.87, 52.45 21.21 C53.56 26.55, 52.24 32.85, 49.65 37.19 C47.06 41.54, 42.17 45.54, 36.91 47.27 C31.65 49, 23.57 49.11, 18.11 47.58 C12.64 46.06, 6.91 42.67, 4.11 38.12 C1.3 33.56, 0.48 25.63, 1.28 20.24 C2.09 14.86, 4.01 9.32, 8.93 5.83 C13.85 2.35, 26.48 0.21, 30.8 -0.67 C35.13 -1.56, 35.03 -0.08, 34.85 0.54 M19.16 0.82 C24.15 -0.8, 32.58 0.02, 37.83 2.18 C43.07 4.33, 48.36 9.06, 50.65 13.76 C52.94 18.47, 53.08 25.05, 51.57 30.41 C50.07 35.77, 45.94 42.9, 41.64 45.91 C37.35 48.92, 31.08 49.03, 25.78 48.47 C20.49 47.9, 14.3 46.16, 9.88 42.55 C5.45 38.93, 0.36 31.99, -0.78 26.79 C-1.91 21.58, -0.4 15.74, 3.04 11.29 C6.49 6.85, 17.13 1.48, 19.9 0.11 C22.66 -1.25, 19.52 2.31, 19.63 3.1" stroke="#1971c2" stroke-width="2" fill="none"></path></g><g transform="translate(847.7897502710418 856.5896824464633) rotate(0 5.859375 12)"><text x="5.859375" y="0" font-family="Cascadia, Segoe UI Emoji" font-size="20px" fill="#1971c2" text-anchor="middle" style="white-space: pre;" direction="ltr" dominant-baseline="text-before-edge">4</text></g></svg>